<?xml version="1.0" encoding="utf-8"?>
<!-- Generator: Adobe Illustrator 15.1.0, SVG Export Plug-In . SVG Version: 6.00 Build 0)  -->
<!DOCTYPE svg PUBLIC "-//W3C//DTD SVG 1.1//EN" "http://www.w3.org/Graphics/SVG/1.1/DTD/svg11.dtd">
<svg version="1.1" id="Layer_1" xmlns="http://www.w3.org/2000/svg" xmlns:xlink="http://www.w3.org/1999/xlink" x="0px" y="0px"
	 width="433.7px" height="155.91px" viewBox="0 0 433.7 155.91" enable-background="new 0 0 433.7 155.91" xml:space="preserve">
<g>
	<defs>
		<rect id="SVGID_1_" x="22.677" y="22.68" width="391.934" height="110.551"/>
	</defs>
	<clipPath id="SVGID_2_">
		<use xlink:href="#SVGID_1_"  overflow="visible"/>
	</clipPath>
	<path clip-path="url(#SVGID_2_)" d="M280.218,100.515v8.008c0,0.866,0.244,1.385,0.731,1.566c0.272,0.101,0.656,0.155,1.154,0.155
		v0.826h-4.604v-0.826h0.109c0.495,0,0.846-0.089,1.061-0.263c0.259-0.196,0.388-0.558,0.388-1.072v-9.729
		c-0.402-0.312-0.908-0.468-1.524-0.468v-0.825h3.921l7.762,9.032v-6.405c0-0.96-0.22-1.516-0.65-1.667
		c-0.253-0.088-0.64-0.135-1.16-0.135h-0.186v-0.825h4.901v0.825h-0.188c-0.494,0-0.845,0.051-1.058,0.145
		c-0.333,0.16-0.501,0.471-0.501,0.934v11.343h-1.049L280.218,100.515z M262.509,103.67c0,2.003,0.422,3.639,1.261,4.906
		c0.824,1.254,1.91,1.883,3.261,1.883c1.67,0,2.82-0.908,3.454-2.72c0.282-0.839,0.425-1.752,0.425-2.756
		c0-1.819-0.38-3.355-1.141-4.603c-0.804-1.324-1.895-1.988-3.267-1.988c-1.647,0-2.811,0.836-3.493,2.504
		C262.676,101.707,262.509,102.629,262.509,103.67 M259.669,104.694c0-2.088,0.682-3.815,2.047-5.172
		c1.362-1.36,3.108-2.042,5.238-2.042c2,0,3.633,0.631,4.894,1.88c1.264,1.255,1.895,2.871,1.895,4.86
		c0,1.508-0.38,2.857-1.141,4.044c-0.745,1.159-1.752,2.008-3.027,2.537c-0.894,0.378-1.885,0.568-2.98,0.568
		c-1.269,0-2.425-0.26-3.464-0.787c-1.149-0.587-2.028-1.438-2.638-2.554C259.941,107.015,259.669,105.902,259.669,104.694
		 M249.869,98.713v-0.825h6.044v0.825h-0.316c-0.963,0-1.448,0.531-1.448,1.593v8.395c0,0.571,0.118,0.974,0.355,1.2
		c0.233,0.227,0.61,0.344,1.131,0.344h0.278v0.826h-6.044v-0.826h0.271c0.922,0,1.382-0.488,1.382-1.46v-8.479
		c0-0.57-0.104-0.979-0.314-1.225c-0.213-0.244-0.574-0.368-1.087-0.368H249.869z M241.501,98.992v9.665
		c0,0.628,0.136,1.057,0.407,1.287c0.234,0.197,0.65,0.3,1.243,0.3h0.456v0.826h-6.842v-0.826h0.642c0.975,0,1.465-0.53,1.465-1.587
		v-9.665h-2.246c-0.453,0-0.779,0.036-0.976,0.104c-0.323,0.112-0.552,0.346-0.687,0.706c-0.131,0.322-0.262,0.887-0.391,1.686
		h-0.779l0.342-3.964h0.613c0.172,0.181,0.295,0.279,0.361,0.301c0.125,0.042,0.309,0.063,0.551,0.063h9.049
		c0.374,0,0.675-0.124,0.909-0.364h0.615l0.342,3.964h-0.778c-0.105-0.653-0.187-1.089-0.251-1.304
		c-0.162-0.544-0.387-0.888-0.679-1.024c-0.239-0.109-0.617-0.167-1.131-0.167H241.501z M224.868,105.005l-1.746-4.955l-1.597,4.955
		H224.868z M225.303,106.174h-4.158l-0.798,2.483c-0.194,0.586-0.203,1.001-0.028,1.232c0.168,0.233,0.677,0.354,1.53,0.354h0.243
		v0.826h-5.041v-0.826h0.288c0.514,0,0.925-0.191,1.234-0.57c0.217-0.278,0.426-0.734,0.629-1.377l3.252-10.109l-0.207-0.621h2.814
		l3.796,10.772c0.226,0.632,0.448,1.078,0.669,1.335c0.299,0.337,0.71,0.528,1.236,0.57v0.826h-6.182v-0.826h0.668
		c0.554,0,0.906-0.136,1.047-0.407c0.139-0.261,0.105-0.664-0.094-1.207L225.303,106.174z M203.716,98.713v9.896
		c0,0.709,0.094,1.154,0.291,1.338c0.195,0.186,0.648,0.275,1.359,0.275c1.938,0,3.361-0.632,4.271-1.893
		c0.74-1.042,1.111-2.338,1.111-3.893c0-1.819-0.469-3.258-1.41-4.307c-0.908-1.013-2.291-1.519-4.141-1.519
		C204.669,98.611,204.171,98.644,203.716,98.713 M199.323,98.713v-0.825c0.452-0.029,0.899-0.054,1.346-0.075l0.92-0.042
		c0.066,0,0.332-0.014,0.798-0.049c1.015-0.071,1.883-0.107,2.599-0.107c2.475,0,4.275,0.288,5.393,0.853
		c1.332,0.674,2.265,1.751,2.798,3.229c0.271,0.767,0.407,1.586,0.407,2.462c0,1.854-0.59,3.44-1.766,4.752
		c-1.292,1.439-3.443,2.161-6.451,2.161h-6.043v-0.826c0.604,0,1.029-0.082,1.27-0.241c0.33-0.211,0.494-0.624,0.494-1.239v-8.188
		c0-0.963-0.219-1.536-0.648-1.718C200.188,98.764,199.817,98.713,199.323,98.713 M184.333,100.515v8.008
		c0,0.866,0.244,1.385,0.731,1.566c0.272,0.101,0.656,0.155,1.153,0.155v0.826h-4.604v-0.826h0.11c0.494,0,0.846-0.089,1.058-0.263
		c0.26-0.196,0.391-0.558,0.391-1.072v-9.729c-0.403-0.312-0.909-0.468-1.525-0.468v-0.825h3.92l7.764,9.032v-6.405
		c0-0.96-0.221-1.516-0.651-1.667c-0.254-0.088-0.64-0.135-1.16-0.135h-0.187v-0.825h4.902v0.825h-0.188
		c-0.493,0-0.846,0.051-1.059,0.145c-0.332,0.16-0.5,0.471-0.5,0.934v11.343h-1.049L184.333,100.515z M173.827,98.713v-0.825h4.93
		v0.825h-0.139c-0.615,0-1.052,0.121-1.318,0.365c-0.285,0.268-0.428,0.734-0.428,1.396v5.276c0,1.876-0.472,3.293-1.42,4.242
		c-0.908,0.919-2.218,1.378-3.92,1.378c-1.613,0-2.908-0.36-3.88-1.077c-1.146-0.841-1.716-2.112-1.716-3.818v-6.322
		c0-0.559-0.096-0.938-0.289-1.139s-0.539-0.301-1.039-0.301h-0.326v-0.825h5.95v0.825h-0.323c-0.898,0-1.346,0.482-1.346,1.439
		v6.322c0,1.575,0.579,2.617,1.736,3.126c0.514,0.229,1.082,0.344,1.707,0.344c1.145,0,2.046-0.326,2.699-0.977
		c0.684-0.682,1.024-1.652,1.024-2.917v-5.154c0-1.007-0.211-1.659-0.633-1.957c-0.229-0.151-0.538-0.227-0.929-0.227H173.827z
		 M149.657,103.67c0,2.003,0.42,3.639,1.262,4.906c0.822,1.254,1.91,1.883,3.26,1.883c1.67,0,2.82-0.908,3.453-2.72
		c0.283-0.839,0.426-1.752,0.426-2.756c0-1.819-0.381-3.355-1.141-4.603c-0.806-1.324-1.896-1.988-3.269-1.988
		c-1.647,0-2.81,0.836-3.491,2.504C149.825,101.707,149.657,102.629,149.657,103.67 M146.816,104.694
		c0-2.088,0.681-3.815,2.048-5.172c1.363-1.36,3.108-2.042,5.238-2.042c1.999,0,3.631,0.631,4.893,1.88
		c1.266,1.255,1.896,2.871,1.896,4.86c0,1.508-0.381,2.857-1.142,4.044c-0.744,1.159-1.752,2.008-3.025,2.537
		c-0.895,0.378-1.887,0.568-2.982,0.568c-1.268,0-2.424-0.26-3.464-0.787c-1.151-0.587-2.028-1.438-2.637-2.554
		C147.089,107.015,146.816,105.902,146.816,104.694 M136.999,99.057v4.769h2.646c0.839,0,1.347-0.202,1.513-0.611
		c0.094-0.219,0.139-0.533,0.139-0.94h0.764v4.224h-0.764c0-1.009-0.435-1.514-1.309-1.514h-2.988v3.415
		c0,0.954,0.158,1.52,0.472,1.7c0.175,0.096,0.442,0.146,0.799,0.146h0.36v0.826h-5.678v-0.826h0.303c0.41,0,0.699-0.092,0.867-0.27
		c0.164-0.18,0.25-0.495,0.25-0.942v-8.58c0-0.586-0.067-1.003-0.197-1.251c-0.176-0.338-0.506-0.51-0.981-0.51h-0.241v-0.804h9.599
		v2.987h-0.688c-0.031-0.617-0.105-1.049-0.221-1.281c-0.174-0.361-0.501-0.537-0.977-0.537H136.999z"/>
	<path clip-path="url(#SVGID_2_)" d="M395.892,76.243c-0.102,0-0.203-0.033-0.203-0.203v-0.61c0-4.365,0-5.416,0.066-6.33
		c0.069-1.016,0.305-1.422,1.118-1.557c0.339-0.069,0.609-0.102,0.847-0.102c0.373,0,0.541-0.102,0.541-0.306
		c0-0.203-0.203-0.27-0.61-0.27c-1.185,0-3.249,0.066-3.96,0.066c-0.812,0-2.775-0.066-4.366-0.066c-0.406,0-0.644,0.066-0.644,0.27
		c0,0.204,0.203,0.306,0.508,0.306c0.439,0,0.948,0.032,1.186,0.102c0.948,0.27,1.219,0.575,1.286,1.557
		c0.034,0.914,0.034,1.727,0.034,6.094v5.077c0,2.641,0,4.908-0.137,6.128c-0.101,0.846-0.27,1.388-0.88,1.522
		c-0.271,0.069-0.607,0.104-1.05,0.104c-0.372,0-0.472,0.168-0.472,0.303c0,0.203,0.201,0.311,0.574,0.311
		c1.185,0,3.147-0.101,3.824-0.101c0.847,0,2.911,0.101,4.841,0.101c0.374,0,0.61-0.107,0.61-0.311c0-0.135-0.135-0.303-0.474-0.303
		c-0.439,0-1.117-0.034-1.524-0.104c-0.88-0.135-1.049-0.677-1.15-1.489c-0.136-1.253-0.169-3.453-0.169-6.094v-2.199
		c0-0.136,0.102-0.17,0.203-0.17h11.238c0.068,0,0.169,0.067,0.169,0.17v2.199c0,2.641,0,4.841-0.136,6.061
		c-0.102,0.846-0.271,1.388-0.879,1.522c-0.271,0.069-0.61,0.104-1.083,0.104c-0.338,0-0.475,0.168-0.475,0.303
		c0,0.203,0.237,0.311,0.644,0.311c1.15,0,3.25-0.101,3.927-0.101c0.812,0,2.775,0.101,4.705,0.101c0.373,0,0.609-0.107,0.609-0.311
		c0-0.135-0.17-0.303-0.474-0.303c-0.475,0-1.117-0.034-1.523-0.104c-0.914-0.135-1.083-0.677-1.185-1.489
		c-0.136-1.253-0.136-3.521-0.136-6.161v-5.077c0-4.367,0-5.18,0.067-6.094c0.068-1.016,0.305-1.422,1.083-1.557
		c0.372-0.069,0.644-0.102,0.881-0.102c0.338,0,0.541-0.102,0.541-0.306c0-0.203-0.203-0.27-0.643-0.27
		c-1.151,0-3.115,0.066-3.826,0.066c-0.777,0-2.877-0.066-4.468-0.066c-0.439,0-0.643,0.066-0.643,0.27
		c0,0.204,0.168,0.306,0.507,0.306c0.407,0,0.915,0.032,1.151,0.102c0.947,0.27,1.218,0.575,1.286,1.557
		c0.033,0.914,0.067,1.965,0.067,6.33v0.61c0,0.17-0.101,0.203-0.169,0.203H395.892z M374.226,80.271c0,2.641,0,4.908-0.134,6.128
		c-0.102,0.846-0.271,1.388-0.881,1.522c-0.237,0.069-0.61,0.104-1.05,0.104c-0.372,0-0.474,0.168-0.474,0.303
		c0,0.203,0.204,0.311,0.576,0.311c1.185,0,3.215-0.101,3.893-0.101c0.846,0,2.843,0.101,4.807,0.101
		c0.338,0,0.575-0.107,0.575-0.311c0-0.135-0.134-0.303-0.474-0.303c-0.44,0-1.117-0.034-1.522-0.104
		c-0.88-0.135-1.051-0.677-1.151-1.489c-0.136-1.253-0.17-3.521-0.17-6.161V68.626l3.757,0.067c2.676,0.034,3.454,0.915,3.521,1.657
		l0.034,0.307c0.033,0.439,0.102,0.576,0.338,0.576c0.17,0,0.236-0.169,0.271-0.475c0-0.745,0.067-2.878,0.067-3.485
		c0-0.441-0.033-0.61-0.237-0.61c-0.102,0-0.338,0.066-0.812,0.135c-0.439,0.068-1.083,0.135-2.03,0.135h-12.085
		c-0.982,0-2.099-0.033-2.98-0.135c-0.743-0.101-1.049-0.338-1.285-0.338c-0.169,0-0.271,0.168-0.339,0.541
		c-0.067,0.237-0.643,3.013-0.643,3.487c0,0.304,0.067,0.475,0.271,0.475c0.201,0,0.27-0.137,0.338-0.373
		c0.067-0.203,0.203-0.576,0.508-0.981c0.438-0.645,1.149-0.847,2.878-0.881l4.433-0.102V80.271z M352.122,68.863
		c0-0.237,0.067-0.338,0.271-0.407c0.305-0.066,1.017-0.102,1.761-0.102c1.76,0,4.535,1.051,4.535,5.112
		c0,2.37-1.015,3.622-1.929,4.266c-0.509,0.372-0.914,0.474-2.099,0.474c-0.745,0-1.625-0.067-2.269-0.271
		c-0.203-0.101-0.271-0.202-0.271-0.508V68.863z M348.331,80.271c0,2.641,0,4.908-0.136,6.128c-0.103,0.846-0.271,1.388-0.881,1.522
		c-0.271,0.069-0.608,0.104-1.049,0.104c-0.373,0-0.474,0.168-0.474,0.303c0,0.203,0.203,0.311,0.575,0.311
		c1.185,0,3.08-0.101,3.655-0.101c0.44,0,2.912,0.101,4.639,0.101c0.372,0,0.608-0.107,0.608-0.311c0-0.135-0.135-0.303-0.372-0.303
		c-0.373,0-1.016-0.034-1.456-0.104c-0.913-0.135-1.049-0.677-1.15-1.522c-0.135-1.22-0.169-3.453-0.169-6.128v-0.406
		c0-0.169,0.101-0.236,0.236-0.236l2.675,0.067c0.204,0,0.372,0.033,0.541,0.204c0.373,0.438,1.626,2.368,2.81,3.927
		c1.658,2.232,2.776,3.588,4.063,4.23c0.778,0.406,1.59,0.581,3.25,0.581h2.843c0.372,0,0.575-0.066,0.575-0.311
		c0-0.135-0.136-0.303-0.372-0.303c-0.237,0-0.406,0-0.712-0.069c-0.474-0.103-1.522-0.237-3.182-1.896
		c-1.794-1.794-3.892-4.4-6.534-7.648c2.912-2.337,4.132-4.232,4.132-6.365c0-1.929-1.253-3.385-2.1-3.961
		c-1.591-1.049-3.758-1.218-5.653-1.218c-0.913,0-3.622,0.066-4.638,0.066c-0.609,0-2.505-0.066-4.062-0.066
		c-0.441,0-0.678,0.066-0.678,0.27c0,0.204,0.203,0.306,0.509,0.306c0.439,0,0.947,0.032,1.184,0.102
		c0.948,0.27,1.218,0.575,1.287,1.557c0.034,0.914,0.034,1.727,0.034,6.094V80.271z M331.507,87.448
		c-5.62,0-9.005-4.672-9.005-10.597c0-7.107,3.892-8.868,7.211-8.868c4.806,0,8.631,3.927,8.631,10.29
		C338.344,86.466,333.605,87.448,331.507,87.448 M330.288,89.01c7.685,0,12.491-5.184,12.491-11.786
		c0-6.601-4.673-10.764-12.188-10.764c-9.038,0-12.49,6.363-12.49,11.272C318.102,82.844,321.621,89.01,330.288,89.01
		 M292.577,87.955c0.271,0.751,0.44,1.055,0.812,1.055c0.44,0,0.61-0.339,1.151-1.528c1.218-2.642,5.213-12.83,5.721-14.049h0.068
		l6.059,14.185c0.44,1.054,0.644,1.393,1.049,1.393c0.44,0,0.609-0.339,0.948-1.359c1.456-4.299,4.502-13.438,5.89-17.061
		c0.61-1.66,0.949-2.743,1.659-3.013c0.339-0.104,0.744-0.136,1.049-0.136c0.271,0,0.406-0.136,0.406-0.34
		c0-0.169-0.203-0.235-0.541-0.235c-0.981,0-2.268,0.066-2.471,0.066c-0.271,0-1.625-0.066-3.182-0.066
		c-0.476,0-0.711,0.066-0.711,0.27c0,0.17,0.235,0.306,0.507,0.306c1.186,0,1.456,0.338,1.456,0.812
		c0,0.406-0.102,0.981-0.306,1.658c-1.049,3.352-3.316,10.933-3.892,12.594h-0.103l-5.957-14.218
		c-0.372-0.915-0.644-1.355-0.981-1.355c-0.271,0-0.575,0.238-0.88,1.051l-5.688,14.713h-0.101
		c-0.44-1.32-3.148-10.036-3.657-11.932c-0.371-1.321-0.643-2.274-0.643-2.646c0-0.306,0.034-0.474,0.306-0.575
		c0.236-0.069,0.508-0.102,0.744-0.102c0.305,0,0.542-0.102,0.542-0.306c0-0.203-0.204-0.27-0.644-0.27
		c-1.726,0-3.182,0.066-3.454,0.066c-0.27,0-1.929-0.066-3.451-0.066c-0.446,0-0.684,0.066-0.684,0.27
		c0,0.204,0.169,0.306,0.476,0.306c0.275,0,0.851,0.032,1.155,0.236c0.44,0.272,0.678,0.948,1.05,1.997L292.577,87.955z
		 M269.523,80.271c0,2.641,0,4.908-0.135,6.128c-0.102,0.846-0.27,1.388-0.88,1.522c-0.271,0.069-0.609,0.104-1.05,0.104
		c-0.372,0-0.474,0.168-0.474,0.303c0,0.203,0.202,0.311,0.575,0.311c0.61,0,1.354-0.034,2.065-0.066
		c0.71,0,1.354-0.041,1.693-0.041c0.879,0,1.996,0.041,3.451,0.073c1.456,0.067,3.25,0.103,5.485,0.103c1.116,0,1.387,0,1.59-0.751
		c0.169-0.576,0.407-2.539,0.407-3.182c0-0.306-0.034-0.678-0.271-0.678c-0.202,0-0.271,0.136-0.339,0.44
		c-0.204,1.185-0.541,1.794-1.286,2.132c-0.778,0.338-2.031,0.373-2.81,0.373c-3.047,0-3.96-0.44-4.028-2.403
		c-0.033-0.847,0-3.284,0-4.266v-2.301c0-0.17,0.033-0.306,0.169-0.306c0.745,0,4.13,0.068,4.673,0.136
		c1.116,0.102,1.488,0.542,1.657,1.116c0.068,0.372,0.068,0.745,0.102,1.051c0,0.135,0.068,0.236,0.271,0.236
		c0.272,0,0.306-0.405,0.306-0.643c0-0.203,0.068-1.355,0.136-1.93c0.169-1.455,0.236-1.931,0.236-2.099
		c0-0.17-0.102-0.305-0.236-0.305c-0.136,0-0.237,0.168-0.475,0.372c-0.271,0.305-0.711,0.372-1.422,0.438
		c-0.677,0.07-4.536,0.07-5.214,0.07c-0.169,0-0.202-0.137-0.202-0.306v-7.108c0-0.17,0.068-0.271,0.202-0.271
		c0.61,0,4.165,0.066,4.672,0.135c1.49,0.136,1.727,0.541,1.964,1.049c0.169,0.338,0.203,0.847,0.203,1.05
		c0,0.237,0.034,0.372,0.237,0.372c0.237,0,0.305-0.339,0.338-0.474c0.068-0.339,0.136-1.59,0.17-1.896
		c0.067-1.32,0.236-1.66,0.236-1.862c0-0.136-0.033-0.271-0.202-0.271c-0.136,0-0.305,0.102-0.475,0.136
		c-0.236,0.034-0.71,0.136-1.251,0.169c-0.576,0.035-7.179,0-8.125,0c-0.848,0-2.742-0.066-4.301-0.066
		c-0.439,0-0.677,0.066-0.677,0.27c0,0.204,0.204,0.306,0.509,0.306c0.439,0,0.947,0.032,1.185,0.102
		c0.947,0.27,1.219,0.575,1.287,1.557c0.032,0.914,0.032,1.727,0.032,6.094V80.271z M254.833,75.193c0-4.367,0-5.18,0.067-6.094
		c0.067-1.016,0.305-1.422,1.116-1.557c0.34-0.069,0.813-0.102,1.151-0.102c0.372,0,0.542-0.102,0.542-0.306
		c0-0.203-0.203-0.27-0.644-0.27c-1.15,0-3.588,0.066-4.299,0.066c-0.812,0-2.708-0.066-4.097-0.066
		c-0.439,0-0.643,0.066-0.643,0.27c0,0.204,0.17,0.306,0.509,0.306c0.372,0,0.744,0.032,0.98,0.102
		c0.948,0.27,1.22,0.575,1.286,1.557c0.035,0.914,0.035,1.727,0.035,6.094v5.077c0,2.641,0,4.908-0.136,6.128
		c-0.103,0.846-0.271,1.388-0.88,1.522c-0.272,0.069-0.609,0.104-1.05,0.104c-0.373,0-0.475,0.168-0.475,0.303
		c0,0.203,0.203,0.311,0.576,0.311c0.608,0,1.354-0.034,2.064-0.066c0.711,0,1.354-0.041,1.693-0.041
		c1.218,0,2.471,0.041,3.96,0.073c1.49,0.067,3.215,0.103,5.348,0.103c1.559,0,1.693-0.135,1.896-0.785
		c0.237-0.846,0.441-2.979,0.441-3.317s-0.069-0.643-0.272-0.643c-0.236,0-0.304,0.169-0.338,0.44
		c-0.067,0.541-0.372,1.354-0.744,1.727c-0.745,0.778-1.896,0.812-3.488,0.812c-2.301,0-3.452-0.17-3.96-0.61
		c-0.643-0.541-0.643-2.369-0.643-6.06V75.193z M233.372,80.271c0,2.641,0,4.908-0.137,6.128c-0.102,0.846-0.271,1.388-0.879,1.522
		c-0.238,0.069-0.611,0.104-1.05,0.104c-0.372,0-0.475,0.168-0.475,0.303c0,0.203,0.202,0.311,0.575,0.311
		c1.185,0,3.216-0.101,3.894-0.101c0.847,0,2.843,0.101,4.806,0.101c0.34,0,0.576-0.107,0.576-0.311
		c0-0.135-0.135-0.303-0.474-0.303c-0.441,0-1.118-0.034-1.522-0.104c-0.881-0.135-1.05-0.677-1.152-1.489
		c-0.135-1.253-0.168-3.521-0.168-6.161V68.626l3.757,0.067c2.674,0.034,3.453,0.915,3.521,1.657l0.033,0.307
		c0.034,0.439,0.103,0.576,0.339,0.576c0.169,0,0.237-0.169,0.271-0.475c0-0.745,0.066-2.878,0.066-3.485
		c0-0.441-0.032-0.61-0.235-0.61c-0.103,0-0.339,0.066-0.813,0.135c-0.439,0.068-1.082,0.135-2.03,0.135h-12.086
		c-0.981,0-2.098-0.033-2.979-0.135c-0.744-0.101-1.049-0.338-1.286-0.338c-0.17,0-0.271,0.168-0.339,0.541
		c-0.068,0.237-0.645,3.013-0.645,3.487c0,0.304,0.07,0.475,0.272,0.475c0.204,0,0.271-0.137,0.338-0.373
		c0.067-0.203,0.203-0.576,0.509-0.981c0.439-0.645,1.15-0.847,2.877-0.881l4.436-0.102V80.271z M211.942,80.271
		c0,2.641,0,4.908-0.135,6.128c-0.103,0.846-0.271,1.388-0.879,1.522c-0.238,0.069-0.611,0.104-1.05,0.104
		c-0.373,0-0.474,0.168-0.474,0.303c0,0.203,0.201,0.311,0.574,0.311c1.186,0,3.215-0.101,3.893-0.101
		c0.847,0,2.845,0.101,4.807,0.101c0.34,0,0.576-0.107,0.576-0.311c0-0.135-0.134-0.303-0.475-0.303
		c-0.439,0-1.116-0.034-1.522-0.104c-0.88-0.135-1.049-0.677-1.151-1.489c-0.135-1.253-0.168-3.521-0.168-6.161V68.626l3.756,0.067
		c2.676,0.034,3.453,0.915,3.521,1.657l0.033,0.307c0.035,0.439,0.102,0.576,0.34,0.576c0.169,0,0.236-0.169,0.27-0.475
		c0-0.745,0.067-2.878,0.067-3.485c0-0.441-0.032-0.61-0.235-0.61c-0.102,0-0.34,0.066-0.812,0.135
		c-0.441,0.068-1.084,0.135-2.031,0.135h-12.086c-0.98,0-2.098-0.033-2.979-0.135c-0.744-0.101-1.049-0.338-1.286-0.338
		c-0.169,0-0.271,0.168-0.339,0.541c-0.068,0.237-0.643,3.013-0.643,3.487c0,0.304,0.067,0.475,0.27,0.475
		c0.205,0,0.271-0.137,0.339-0.373c0.067-0.203,0.204-0.576,0.509-0.981c0.439-0.645,1.15-0.847,2.876-0.881l4.435-0.102V80.271z
		 M180.969,79.425c0,4.163,1.185,6.296,2.709,7.616c2.166,1.902,5.247,1.969,6.804,1.969c1.93,0,4.196-0.304,6.295-2.069
		c2.506-2.065,2.845-5.45,2.845-8.667v-3.08c0-4.367,0.034-5.18,0.067-6.094c0.067-1.016,0.271-1.422,1.084-1.557
		c0.371-0.069,0.541-0.102,0.879-0.102c0.34,0,0.508-0.102,0.508-0.306c0-0.203-0.202-0.27-0.608-0.27
		c-1.151,0-3.149,0.066-3.487,0.066c-0.033,0-2.031-0.066-3.554-0.066c-0.407,0-0.61,0.066-0.61,0.27
		c0,0.204,0.17,0.306,0.508,0.306c0.339,0,0.847,0.032,1.084,0.102c0.947,0.27,1.185,0.575,1.252,1.557
		c0.033,0.914,0.068,1.727,0.068,6.094v3.622c0,2.945-0.068,5.449-1.727,7.008c-1.186,1.15-2.709,1.522-3.994,1.522
		c-1.016,0-2.438-0.102-3.759-1.15c-1.454-1.151-2.267-2.776-2.267-6.974v-4.028c0-4.367,0-5.18,0.067-6.094
		c0.067-1.016,0.304-1.422,1.083-1.557c0.372-0.069,0.541-0.102,0.88-0.102c0.306,0,0.474-0.102,0.474-0.306
		c0-0.203-0.203-0.27-0.643-0.27c-1.083,0-3.081,0.066-3.824,0.066c-0.881,0-2.879-0.066-4.47-0.066c-0.44,0-0.644,0.066-0.644,0.27
		c0,0.204,0.17,0.306,0.509,0.306c0.405,0,0.913,0.032,1.151,0.102c0.946,0.27,1.219,0.541,1.287,1.557
		c0.066,0.914,0.032,1.727,0.032,6.094V79.425z M157.104,76.243c-0.103,0-0.205-0.033-0.205-0.203v-0.61c0-4.365,0-5.416,0.068-6.33
		c0.068-1.016,0.305-1.422,1.117-1.557c0.339-0.069,0.609-0.102,0.847-0.102c0.373,0,0.541-0.102,0.541-0.306
		c0-0.203-0.202-0.27-0.608-0.27c-1.186,0-3.25,0.066-3.961,0.066c-0.812,0-2.776-0.066-4.367-0.066
		c-0.406,0-0.643,0.066-0.643,0.27c0,0.204,0.202,0.306,0.508,0.306c0.439,0,0.947,0.032,1.185,0.102
		c0.948,0.27,1.218,0.575,1.286,1.557c0.033,0.914,0.033,1.727,0.033,6.094v5.077c0,2.641,0,4.908-0.135,6.128
		c-0.102,0.846-0.271,1.388-0.88,1.522c-0.272,0.069-0.608,0.104-1.05,0.104c-0.372,0-0.473,0.168-0.473,0.303
		c0,0.203,0.201,0.311,0.574,0.311c1.185,0,3.148-0.101,3.824-0.101c0.848,0,2.912,0.101,4.842,0.101
		c0.373,0,0.609-0.107,0.609-0.311c0-0.135-0.135-0.303-0.475-0.303c-0.438,0-1.116-0.034-1.522-0.104
		c-0.881-0.135-1.049-0.677-1.151-1.489c-0.135-1.253-0.17-3.453-0.17-6.094v-2.199c0-0.136,0.103-0.17,0.205-0.17h11.238
		c0.066,0,0.168,0.067,0.168,0.17v2.199c0,2.641,0,4.841-0.135,6.061c-0.102,0.846-0.271,1.388-0.88,1.522
		c-0.271,0.069-0.609,0.104-1.083,0.104c-0.338,0-0.475,0.168-0.475,0.303c0,0.203,0.237,0.311,0.644,0.311
		c1.151,0,3.25-0.101,3.927-0.101c0.812,0,2.775,0.101,4.705,0.101c0.373,0,0.609-0.107,0.609-0.311
		c0-0.135-0.168-0.303-0.475-0.303c-0.473,0-1.115-0.034-1.523-0.104c-0.912-0.135-1.082-0.677-1.184-1.489
		c-0.137-1.253-0.137-3.521-0.137-6.161v-5.077c0-4.367,0-5.18,0.068-6.094c0.068-1.016,0.305-1.422,1.084-1.557
		c0.371-0.069,0.643-0.102,0.879-0.102c0.34,0,0.543-0.102,0.543-0.306c0-0.203-0.203-0.27-0.643-0.27
		c-1.152,0-3.115,0.066-3.826,0.066c-0.778,0-2.877-0.066-4.469-0.066c-0.439,0-0.643,0.066-0.643,0.27
		c0,0.204,0.169,0.306,0.507,0.306c0.407,0,0.915,0.032,1.151,0.102c0.947,0.27,1.219,0.575,1.287,1.557
		c0.033,0.914,0.066,1.965,0.066,6.33v0.61c0,0.17-0.102,0.203-0.168,0.203H157.104z M138.519,89.01
		c1.592,0,3.555-0.169,4.977-1.189c2.166-1.524,2.979-3.25,2.979-5.384c0-2.605-1.218-4.806-5.145-6.973l-1.219-0.677
		c-2.674-1.489-3.148-2.504-3.148-3.791c0-1.964,1.929-3.081,4.062-3.081c1.93,0,2.877,0.812,3.317,1.353
		c0.642,0.746,0.779,1.626,0.779,1.897c0,0.338,0.101,0.508,0.304,0.508c0.236,0,0.372-0.305,0.372-0.914
		c0-2.269,0.103-3.081,0.103-3.453c0-0.204-0.136-0.305-0.406-0.373c-0.779-0.203-2.303-0.473-4.232-0.473
		c-4.129,0-7.515,2.268-7.515,5.788c0,2.539,1.151,4.468,4.672,6.534l1.726,1.015c2.641,1.557,2.945,2.811,2.945,4.062
		c0,2.03-1.557,3.655-4.13,3.655c-1.861,0-4.097-0.711-4.739-2.843c-0.169-0.509-0.271-1.117-0.271-1.49
		c0-0.203-0.033-0.474-0.305-0.474c-0.236,0-0.371,0.305-0.371,0.745c-0.035,0.474-0.17,2.268-0.17,3.825
		c0,0.643,0.102,0.778,0.576,0.981C134.965,88.841,136.794,89.01,138.519,89.01"/>
	<path clip-path="url(#SVGID_2_)" d="M55.353,45.237c-17.533,8.383-28.415,24.28-27.811,38.764
		c0.486,11.612,9.5,26.01,24.404,34.874c-18.228,0.556-29.068-21.655-28.621-32.419c-2.6,12.52,1.939,36.144,25.967,44.678
		c7.916,2.811,22.713,3.246,29.32-1.514c11.424-8.228,6.825-19.558-2.578-27.276C65.144,93.405,55.59,87.488,50.099,75.356
		C46.37,67.121,45.028,56.85,55.353,45.237"/>
	<path clip-path="url(#SVGID_2_)" d="M64.699,83.957C49.272,68.144,52.494,57.453,62.36,43.752
		c4.595-6.381,9.13-12.755,8.367-21.073c23.484,25.07,1.52,33.258,13.054,46.088c1.631-7.077,6.612-14.474,13.565-19.798
		c-1.928,19.917,4.642,20.542,10.416,32.809c8.91,18.925-3.418,39.925-21.816,48.669c7.812-7.67,8.622-18.206-0.576-28.576
		C80.69,96.594,72.203,91.647,64.699,83.957"/>
</g>
</svg>
