<?xml version="1.0" encoding="UTF-8" standalone="no"?>
<!-- Generator: Adobe Illustrator 15.1.0, SVG Export Plug-In . SVG Version: 6.00 Build 0)  -->

<svg
   xmlns:dc="http://purl.org/dc/elements/1.1/"
   xmlns:cc="http://creativecommons.org/ns#"
   xmlns:rdf="http://www.w3.org/1999/02/22-rdf-syntax-ns#"
   xmlns:svg="http://www.w3.org/2000/svg"
   xmlns="http://www.w3.org/2000/svg"
   xmlns:xlink="http://www.w3.org/1999/xlink"
   xmlns:sodipodi="http://sodipodi.sourceforge.net/DTD/sodipodi-0.dtd"
   xmlns:inkscape="http://www.inkscape.org/namespaces/inkscape"
   version="1.1"
   id="Layer_1"
   x="0px"
   y="0px"
   width="88.047119"
   height="110.55067"
   viewBox="0 0 88.047117 110.55067"
   enable-background="new 0 0 433.7 155.91"
   xml:space="preserve"
   inkscape:version="0.48.5 r10040"
   sodipodi:docname="Shuttleworth Foundation.svg"><metadata
     id="metadata23"><rdf:RDF><cc:Work
         rdf:about=""><dc:format>image/svg+xml</dc:format><dc:type
           rdf:resource="http://purl.org/dc/dcmitype/StillImage" /><dc:title></dc:title></cc:Work></rdf:RDF></metadata><defs
     id="defs21"><defs
       id="defs5"><rect
         height="110.551"
         width="391.93399"
         y="22.68"
         x="22.677"
         id="SVGID_1_" /></defs><clipPath
       id="SVGID_2_"><use
         id="use9"
         overflow="visible"
         xlink:href="#SVGID_1_"
         style="overflow:visible"
         x="0"
         y="0"
         width="433.70001"
         height="155.91" /></clipPath></defs><sodipodi:namedview
     pagecolor="#ffffff"
     bordercolor="#666666"
     borderopacity="1"
     objecttolerance="10"
     gridtolerance="10"
     guidetolerance="10"
     inkscape:pageopacity="0"
     inkscape:pageshadow="2"
     inkscape:window-width="1269"
     inkscape:window-height="816"
     id="namedview19"
     showgrid="false"
     fit-margin-top="0"
     fit-margin-left="0"
     fit-margin-right="0"
     fit-margin-bottom="0"
     inkscape:zoom="0.67327644"
     inkscape:cx="194.173"
     inkscape:cy="55.275673"
     inkscape:window-x="45"
     inkscape:window-y="34"
     inkscape:window-maximized="0"
     inkscape:current-layer="Layer_1" /><path
     style="fill:#3ba933"
     inkscape:connector-curvature="0"
     id="path15"
     d="M 55.353,45.237 C 37.82,53.62 26.938,69.517 27.542,84.001 c 0.486,11.612 9.5,26.01 24.404,34.874 -18.228,0.556 -29.068,-21.655 -28.621,-32.419 -2.6,12.52 1.939,36.144 25.967,44.678 7.916,2.811 22.713,3.246 29.32,-1.514 11.424,-8.228 6.825,-19.558 -2.578,-27.276 C 65.144,93.405 55.59,87.488 50.099,75.356 46.37,67.121 45.028,56.85 55.353,45.237"
     clip-path="url(#SVGID_2_)"
     transform="translate(-22.677001,-22.68)" /><path
     style="fill:#80bd26"
     inkscape:connector-curvature="0"
     id="path17"
     d="M 64.699,83.957 C 49.272,68.144 52.494,57.453 62.36,43.752 c 4.595,-6.381 9.13,-12.755 8.367,-21.073 23.484,25.07 1.52,33.258 13.054,46.088 1.631,-7.077 6.612,-14.474 13.565,-19.798 -1.928,19.917 4.642,20.542 10.416,32.809 8.91,18.925 -3.418,39.925 -21.816,48.669 7.812,-7.67 8.622,-18.206 -0.576,-28.576 C 80.69,96.594 72.203,91.647 64.699,83.957"
     clip-path="url(#SVGID_2_)"
     transform="translate(-22.677001,-22.68)" /></svg>