<?xml version="1.0" encoding="utf-8"?>
<!-- Generator: Adobe Illustrator 25.1.0, SVG Export Plug-In . SVG Version: 6.00 Build 0)  -->
<svg version="1.1"
	 id="Layer_1" xmlns:cc="http://creativecommons.org/ns#" xmlns:dc="http://purl.org/dc/elements/1.1/" xmlns:rdf="http://www.w3.org/1999/02/22-rdf-syntax-ns#" xmlns:svg="http://www.w3.org/2000/svg"
	 xmlns="http://www.w3.org/2000/svg" xmlns:xlink="http://www.w3.org/1999/xlink" x="0px" y="0px" viewBox="0 0 1129 198"
	 style="enable-background:new 0 0 1129 198;" xml:space="preserve">
<style type="text/css">
	.st0{fill:#FECF6A;stroke:#FECF6A;stroke-width:3.2;stroke-linecap:round;stroke-linejoin:round;stroke-miterlimit:4.1973;}
	.st1{fill:none;stroke:#FECF6A;stroke-width:3.2;stroke-linecap:round;stroke-linejoin:round;stroke-miterlimit:4.1973;}
	.st2{fill:none;stroke:#FECF6A;stroke-width:3.2;stroke-linecap:round;stroke-linejoin:round;stroke-miterlimit:2.0986;}
	.st3{fill:none;stroke:#3CB371;stroke-width:6.4869;stroke-linecap:round;stroke-linejoin:round;stroke-miterlimit:4.1973;}
	.st4{fill:#FECF6A;stroke:#FECF6A;stroke-width:3.2434;stroke-linecap:round;stroke-linejoin:round;stroke-miterlimit:4.1973;}
	.st5{fill:none;stroke:#FECF6A;stroke-width:3.2434;stroke-linecap:round;stroke-linejoin:round;stroke-miterlimit:4.1973;}
</style>
<g id="Layer_2">
</g>
<g id="Layer_1">
	<g id="shuttleworth">
		<path id="logo-light-bottom-dot" class="st0" d="M115.3,169.5c-1.1,0.2-1.8,1.2-1.6,2.3c0.2,1.1,1.2,1.8,2.3,1.7
			c1.1-0.2,1.8-1.2,1.6-2.3C117.4,170.1,116.3,169.3,115.3,169.5z"/>
		<path id="logo-light-top-dot" class="st0" d="M53.5,49.9c-1.1,0.2-1.8,1.2-1.6,2.3c0.2,1.1,1.2,1.8,2.3,1.6
			c1.1-0.2,1.8-1.2,1.7-2.3C55.6,50.5,54.5,49.8,53.5,49.9z"/>
		<path id="logo-right" class="st1" d="M123.1,167.4c16.6-10.8,29.3-27.3,26.1-47c-3.5-21.6-22.8-31.3-26.3-53.1
			c-0.9-5.6-0.4-20.9,7.6-22.2c3.3-0.5,5.2,1.9,5.4,3.7c0.5,3.3-0.9,5.9-7,10.8c-11.8,9.5-23.7,23.9-21.2,39.5
			c0.7,4.1,3.1,7.7,6.9,7.1c3-0.5,4.9-3.5,4.4-6.8c-1.6-10-18.2-14.6-20.4-28.5c-1-5.9,0.8-12-0.6-20.5
			C92.9,18.8,50.6,19.9,48.8,8.6C48.3,6,50,3.3,53,2.8c6.5-1.1,12.7,8.9,14,16.8c2.7,16.8-9.9,38-7.1,55.1
			c5.4,33.1,53.6,40.7,58.9,72.9c0.9,5.7,0.5,11-0.9,15.9"/>
		<path id="logo-left" class="st2" d="M47.5,57.4C29.1,73.7,25.9,97.2,29,116.5c3.5,21.6,18.8,50.6,29.2,48.9
			c3.3-0.5,4.6-3.2,4.3-5.2c-0.4-2.7-2.6-5-10.2-6.8C29.3,148,7.5,135.5,5,119.8c-0.6-3.8,0.9-7.4,3.9-7.9c3.3-0.5,5.6,2.4,6.4,7.5
			c0.7,4.4,0.8,12.6,1.8,18.8c4.9,30.4,34.7,50.9,63,46.3c19.5-3.2,32.8-16.4,29.9-34.1c-4.7-28.7-52.7-34.8-58.9-72.9
			c-0.7-4.5-0.4-10.7,1.1-17.2"/>
		<g id="logo-light-bottom-line">
			<path class="st2" d="M115.8,179.8l-0.1,13.8"/>
			<path class="st2" d="M121.4,177.8l6.2,7"/>
			<path class="st2" d="M109.9,178.4l-5.8,7.9"/>
		</g>
	</g>
	<path id="flash" class="st3" d="M180.9,65.6c2.3,20.3,17.2,44.2,43.1,44.2c32.8,0,79.3-60,79.3-91.6c0-6.9-2.6-11.9-9.1-11.9
		c-23.2,0-91.1,142.1-91.1,171c0,8.9,4.3,13.7,11.7,13.7c17.2,0,37.1-29.4,37.1-54.6c0-8.9-3.4-17.7-12.3-17.7
		c-3.1,0-5.1,1.7-5.1,3.2c0,1.8,1.5,2.9,4.6,2.9c65.7,0,117-77.1,117-106.7c0-6.9-2.6-11.9-9.1-11.9c-18.8,0-57.7,78.2-57.7,106.4
		c0,9.9,2.9,16.8,12.2,16.8c10.8,0,26.9-13.7,38.6-39.3c6.5-14.2,16.2-26.9,27.4-26.9c5.2,0,9.5,3.5,12.5,7.4
		c-2.9-3.8-7.2-7.4-12.5-7.4c-19.9,0-35.3,40.3-35.3,56.5c0,6.2,1.7,9.7,6.5,9.7c14.8,0,41.7-54.3,47.3-70.8
		c-10.3,24.8-17.9,44.6-17.9,63c0,4.8,1.5,7.9,5.8,7.9c11.9,0,48-56.5,48-71.6c0-4.2-2.6-6.6-5.7-6.6c-4.6,0-7.7,4.8-7.7,11.1
		c0,17.7,16.6,51.4,16.6,68.5c0,10.2-5.8,20.2-16.9,20.2c-8.8,0-13.5-6.5-13.5-13.4c0-20.6,32.6-45.6,58.5-63.9
		c32.5-22.9,52.5-40.5,52.5-55.1c0-6.8-4-12.3-11.2-12.3c-17.7,0-38.9,42.9-55.6,123.1c23.6-49.1,45.4-66.2,55-66.2
		c4.8,0,7.1,3.2,7.1,7.4c0,10.6-22.3,34.9-22.3,49.3c0,6.2,4.3,9.5,10.6,9.5c8.8,0,18.9-7.2,26.3-16.3"/>
	<path id="forward" class="st3" d="M568.8,19.6c-14,16.3-25.6,39.6-25.6,56.5c0,16.5,7.5,32.9,35.7,32.9c32.8,0,79.3-60,79.3-91.6
		c0-6.9-2.6-11.9-9.1-11.9c-23.2,0-91.1,142.1-91.1,171c0,8.9,4.3,13.7,11.7,13.7c17.2,0,37.1-29.4,37.1-54.6
		c0-8.9-3.4-17.7-12.3-17.7c-3.1,0-5.1,1.7-5.1,3.2c0,1.8,1.5,2.9,4.6,2.9c25.9,0,34.3-14.3,47.1-28.2c5.2-5.7,12.5-11.2,21.6-16
		c-20.5,10.8-31.4,25.2-31.4,36.9c0,7.4,3.7,11.9,11.2,11.9c18.3,0,36.6-31.4,36.6-53.4c0-7.5-2.6-12.8-9.1-12.8
		c-7.2,0-13.2,9.7-13.2,18.9c0,10.6,5.8,18,15.4,18c16.8,0,31.4-26.5,31.4-43.1c0-4.2-2.3-5.8-4.8-5.8c-4.6,0-8,4.8-8,11.1
		c0,5.4,2.6,12.6,12.3,12.6c6,0,14.6-3.1,27.1-11.7c-19.9,24.6-32.6,48.5-32.6,59c0,4.8,1.5,7.2,5.4,7.2c14,0,45.4-66.2,56.6-66.2
		c2,0,2.8,1.4,2.8,3.1c0,8-28.8,40-28.8,55.9c0,4.6,3.1,7.2,7.4,7.2c16.8,0,35.9-39.6,49.6-64.3c-13.1,23.9-23.1,42.6-23.1,54.5
		c0,6.3,2.5,9.9,8.3,9.9c17.1,0,43.6-49.9,43.6-64.3c0-4-2.2-6.5-5.2-6.5c-5.1,0-8,5.7-8,10.9c0,5.5,3.4,13.4,14.6,13.4
		c4.9,0,11.7-3.7,17.2-10.3c4.9-5.7,10.6-9.4,16.6-9.4c5.2,0,9.5,3.5,12.5,7.4c-2.9-3.8-7.2-7.4-12.5-7.4
		c-19.9,0-35.3,40.3-35.3,56.5c0,6.2,1.7,9.7,6.5,9.7c14.8,0,41.7-54.3,47.3-70.8c-10.3,24.8-17.9,44.6-17.9,63
		c0,4.8,1.5,7.9,5.8,7.9c14.8,0,38.9-55,38.9-72.3c0-4.2-2.3-5.8-4.8-5.8c-4.6,0-8,4.8-8,11.1c0,5.4,5.7,12.6,15.4,12.6
		c6,0,14.6-3.1,27.1-11.7c-19.9,24.6-32.6,47.6-32.6,58c0,4.8,1.8,8.2,5.4,8.2c7.9,0,25.4-18.6,36.8-41.9
		c6.5-13.1,15.7-24.3,26.2-24.3c5.2,0,9.5,3.5,12.5,7.4c-2.9-3.8-7.2-7.4-12.5-7.4c-19.9,0-35.3,40.3-35.3,56.5
		c0,6.2,3.5,9.7,8.3,9.7c22.2,0,81.9-80.5,81.9-112.8c0-5.5-2.6-10.3-8.8-10.3c-20.3,0-36,57-36,86.7c0,25.6,9.2,36.5,20.9,36.5
		c12.3,0,21.2-11.5,27.2-25.7"/>
	<g>
		<path id="dot" class="st4" d="M1034.1,94c-1.1,1.3-0.9,3.3,0.5,4.3c1.3,1.1,3.3,0.9,4.3-0.5c1.1-1.3,0.9-3.3-0.5-4.3
			C1037.1,92.4,1035.2,92.6,1034.1,94z"/>
		<path id="left" class="st5" d="M1045.6,108.3l7.2,10l33.5-58.6l-66.2,13.8l7.4,9.9"/>
		<path id="right" class="st5" d="M1082.2,85.5l5.5,7.4l33.4-58.7l-66.1,13.9l5.4,7.5"/>
	</g>
</g>
</svg>
