<svg width="1050" height="400" viewBox="0 0 1050 953" fill="none" xmlns="http://www.w3.org/2000/svg">
    <path  class="dot" id="forward-light-dot-start"
        d="M238.686 457.876C236.076 457.876 233.94 460.012 233.94 462.622C233.94 465.232 236.076 467.368 238.686 467.368C241.297 467.368 243.433 465.232 243.433 462.622C243.433 460.012 241.297 457.876 238.686 457.876Z"
        stroke="#fecf6a" fill="#fecf6a" stroke-width="3" stroke-miterlimit="10" stroke-linecap="round"
        stroke-linejoin="round" />
    <path class="dot" id="forward-light-dot-end"
        d="M933.032 582.934C930.422 582.934 928.286 585.069 928.286 587.68C928.286 590.29 930.422 592.426 933.032 592.426C935.642 592.426 937.778 590.29 937.778 587.68C937.778 585.069 935.642 582.934 933.032 582.934Z"
         stroke="#fecf6a" fill="#fecf6a" stroke-width="3" stroke-miterlimit="10" stroke-linecap="round"
        stroke-linejoin="round" />
    <g id="text">
        <path id="flash"
            d="M58.811 266.847C62.3706 298.171 85.3893 334.952 125.256 334.952C175.801 334.952 247.466 242.404 247.466 193.758C247.466 183.08 243.433 175.486 233.466 175.486C197.633 175.486 92.9825 394.515 92.9825 439.128C92.9825 452.891 99.6275 460.247 111.018 460.247C137.596 460.247 168.208 414.923 168.208 376.005C168.208 362.242 162.987 348.716 149.223 348.716C144.478 348.716 141.392 351.326 141.392 353.699C141.392 356.547 143.766 358.208 148.511 358.208C249.84 358.208 328.861 239.319 328.861 193.758C328.861 183.08 324.827 175.486 314.86 175.486C285.909 175.486 225.872 296.035 225.872 339.461C225.872 354.648 230.38 365.327 244.619 365.327C261.23 365.327 286.147 344.207 304.182 304.815C314.148 282.983 329.098 263.287 346.421 263.287C354.49 263.287 361.134 268.745 365.643 274.678C361.134 268.745 354.49 263.287 346.421 263.287C315.809 263.287 292.079 325.46 292.079 350.377C292.079 359.869 294.69 365.327 302.046 365.327C324.827 365.327 366.355 281.559 374.897 256.168C358.998 294.373 347.371 324.985 347.371 353.224C347.371 360.581 349.744 365.327 356.388 365.327C374.66 365.327 430.426 278.237 430.426 254.981C430.426 248.574 426.392 244.778 421.646 244.778C414.527 244.778 409.781 252.134 409.781 261.863C409.781 289.153 435.409 341.122 435.409 367.463C435.409 383.124 426.392 398.549 409.307 398.549C395.78 398.549 388.424 388.583 388.424 377.904C388.424 346.105 438.732 307.662 478.599 279.423C528.669 244.066 559.519 217.014 559.519 194.47C559.519 184.029 553.349 175.486 542.195 175.486C514.906 175.486 482.158 241.692 456.529 365.327C492.837 289.628 526.533 263.287 541.246 263.287C548.602 263.287 552.162 268.27 552.162 274.678C552.162 291.051 517.753 328.545 517.753 350.614C517.753 360.106 524.398 365.327 534.127 365.327C547.653 365.327 563.315 354.173 574.706 340.173"
            stroke="#3cb371" stroke-width="10" stroke-miterlimit="10" stroke-linecap="round" stroke-linejoin="round" />
        <path id="forward"
            d="M223.499 477.098C201.904 502.252 184.106 538.084 184.106 564.188C184.106 589.579 195.735 614.97 239.161 614.97C289.706 614.97 361.371 522.422 361.371 473.775C361.371 463.097 357.337 455.503 347.371 455.503C311.538 455.503 206.887 674.533 206.887 719.146C206.887 732.909 213.532 740.265 224.923 740.265C251.5 740.265 282.112 694.941 282.112 656.023C282.112 642.26 276.892 628.734 263.128 628.734C258.382 628.734 255.297 631.344 255.297 633.717C255.297 636.565 257.671 638.226 262.416 638.226C302.283 638.226 315.335 616.157 335.031 594.799C343.099 586.02 354.252 577.477 368.253 570.12C336.692 586.731 319.843 609.038 319.843 627.072C319.843 638.463 325.539 645.345 337.166 645.345C365.405 645.345 393.645 596.935 393.645 563.001C393.645 551.373 389.61 543.305 379.644 543.305C368.49 543.305 359.235 558.255 359.235 572.493C359.235 588.867 368.253 600.258 382.966 600.258C408.832 600.258 431.376 559.441 431.376 533.813C431.376 527.405 427.816 524.796 424.019 524.796C416.9 524.796 411.679 532.152 411.679 541.881C411.679 550.186 415.714 561.34 430.664 561.34C439.919 561.34 453.207 556.594 472.428 543.305C441.816 581.273 422.121 618.055 422.121 634.191C422.121 641.548 424.494 645.345 430.426 645.345C452.021 645.345 500.431 543.305 517.753 543.305C520.838 543.305 522.025 545.441 522.025 548.051C522.025 560.391 477.65 609.75 477.65 634.191C477.65 641.31 482.395 645.345 489.04 645.345C514.906 645.345 544.331 584.358 565.451 546.153C545.281 582.934 529.856 611.885 529.856 630.158C529.856 639.887 533.652 645.345 542.67 645.345C569.011 645.345 609.826 568.459 609.826 546.153C609.826 539.983 606.505 536.186 601.758 536.186C593.927 536.186 589.419 544.966 589.419 553.034C589.419 561.577 594.639 573.679 611.962 573.679C619.556 573.679 629.997 567.984 638.54 557.78C646.134 549 654.914 543.305 664.169 543.305C672.237 543.305 678.881 548.763 683.39 554.696C678.881 548.763 672.237 543.305 664.169 543.305C633.557 543.305 609.826 605.478 609.826 630.395C609.826 639.887 612.437 645.345 619.793 645.345C642.574 645.345 684.102 561.577 692.645 536.186C676.745 574.391 665.118 605.003 665.118 633.242C665.118 640.599 667.491 645.345 674.136 645.345C696.917 645.345 734.173 560.628 734.173 533.813C734.173 527.405 730.613 524.796 726.817 524.796C719.698 524.796 714.477 532.152 714.477 541.881C714.477 550.186 723.257 561.34 738.207 561.34C747.462 561.34 760.75 556.594 779.972 543.305C749.36 581.273 729.664 616.632 729.664 632.768C729.664 640.124 732.512 645.345 737.969 645.345C750.072 645.345 777.124 616.632 794.685 580.798C804.652 560.628 818.89 543.305 835.026 543.305C843.094 543.305 849.739 548.763 854.248 554.696C849.739 548.763 843.094 543.305 835.026 543.305C804.414 543.305 780.684 605.478 780.684 630.395C780.684 639.887 786.142 645.345 793.498 645.345C827.67 645.345 919.743 521.236 919.743 471.403C919.743 462.86 915.709 455.503 906.217 455.503C874.893 455.503 850.688 543.305 850.688 589.104C850.688 628.496 864.926 645.345 882.961 645.345C901.946 645.345 915.709 627.547 924.964 605.715"
            stroke="#3cb371" stroke-width="10" stroke-miterlimit="10" stroke-linecap="round" stroke-linejoin="round" />
    </g>
    <g id="flashLight">
        <path class="dot" id="line-dot"
            d="M59.5229 241.691C56.9131 241.691 54.7773 243.827 54.7773 246.438C54.7773 249.048 56.9131 251.184 59.5229 251.184C62.1335 251.184 64.2692 249.048 64.2692 246.438C64.2692 243.827 62.1335 241.691 59.5229 241.691Z"
            fill="#fecf6a" stroke="#fecf6a" stroke-width="5" stroke-miterlimit="10" stroke-linecap="round"
            stroke-linejoin="round" />
        <g id="flash-lines">
            <path class="line" d="M38.4034 241.691L5.41797 235.047" stroke="#fecf6a" stroke-width="5"
                stroke-miterlimit="5" stroke-linecap="round" stroke-linejoin="round" />
            <path class="line" d="M40.3015 257.591L19.894 266.608" stroke="#fecf6a" stroke-width="5"
                stroke-miterlimit="5" stroke-linecap="round" stroke-linejoin="round" />
            <path class="line" d="M45.2848 228.403L31.5215 211.08" stroke="#fecf6a" stroke-width="5"
                stroke-miterlimit="5" stroke-linecap="round" stroke-linejoin="round" />
        </g>
    </g>
    <g id="shuttleworth">
        <path class="dot" id="logo-light-bottom-dot"
            d="M830.042 420.618C827.432 420.618 825.296 422.754 825.296 425.364C825.296 427.975 827.432 430.111 830.042 430.111C832.653 430.111 834.788 427.975 834.788 425.364C834.788 422.754 832.653 420.618 830.042 420.618Z"
            fill="#fecf6a" stroke="#fecf6a" stroke-width="5" stroke-miterlimit="10" stroke-linecap="round"
            stroke-linejoin="round" />
        <path class="dot" id="logo-light-top-dot"
            d="M730.612 116.397C728.002 116.397 725.867 118.533 725.867 121.144C725.867 123.754 728.002 125.889 730.612 125.889C733.223 125.889 735.359 123.754 735.359 121.144C735.359 118.533 733.223 116.397 730.612 116.397Z"
            fill="#fecf6a" stroke="#fecf6a" stroke-width="5" stroke-miterlimit="10" stroke-linecap="round"
            stroke-linejoin="round" />
        <path id="logo-right"
            d="M849.264 418.721C892.453 399.736 928.523 365.802 928.523 318.342C928.523 266.373 886.995 236.235 886.995 183.554C886.995 170.027 894.114 134.432 913.336 134.432C921.167 134.432 924.727 140.839 924.727 145.111C924.727 152.942 920.455 158.637 904.081 167.892C872.757 185.689 839.297 214.878 839.297 252.609C839.297 262.575 843.569 271.83 852.823 271.83C859.942 271.83 865.638 265.423 865.638 257.592C865.638 233.387 828.619 216.301 828.619 182.842C828.619 168.604 835.026 155.077 835.026 134.432C835.026 58.2582 735.359 44.732 735.359 17.6796C735.359 11.2724 740.342 5.57715 747.461 5.57715C763.123 5.57715 773.802 31.2058 773.802 50.4272C773.802 91.0059 736.071 135.856 736.071 177.147C736.071 256.88 846.416 293.187 846.416 370.785C846.416 384.549 843.332 396.888 838.11 407.804"
            stroke="#fecf6a" stroke-width="5" stroke-miterlimit="10" stroke-linecap="round" stroke-linejoin="round" />
        <path id="logo-left"
            d="M713.765 131.585C664.405 162.909 647.794 216.777 647.794 263.288C647.794 315.257 672.711 389.295 697.628 389.295C705.459 389.295 709.73 383.6 709.73 378.616C709.73 372.209 705.459 365.802 688.373 358.683C636.404 337.326 590.13 299.595 590.13 261.864C590.13 252.609 595.113 244.778 602.232 244.778C610.063 244.778 614.335 252.609 614.335 264.711C614.335 275.39 611.487 294.611 611.487 309.562C611.487 382.888 673.423 442.214 741.766 442.214C788.752 442.214 825.059 416.347 825.059 373.633C825.059 304.578 714.713 271.83 714.713 179.995C714.713 169.079 717.798 154.604 723.731 140.128"
            stroke="#fecf6a" stroke-width="5" stroke-miterlimit="5" stroke-linecap="round" stroke-linejoin="round" />
        <g id="logo-light-bottom-line">
            <path class="line" d="M827.432 445.062L821.974 477.334" stroke="#fecf6a" stroke-width="5"
                stroke-miterlimit="5" stroke-linecap="round" stroke-linejoin="round" />
            <path class="line" d="M841.196 442.451L853.06 461.198" stroke="#fecf6a" stroke-width="5"
                stroke-miterlimit="5" stroke-linecap="round" stroke-linejoin="round" />
            <path class="line" d="M814.143 439.366L797.532 455.74" stroke="#fecf6a" stroke-width="5"
                stroke-miterlimit="5" stroke-linecap="round" stroke-linejoin="round" />
        </g>
    </g>
    <g id="arrows">
        <path class="dot" id="dot"
            d="M496.816 884.396C494.205 884.396 492.069 886.532 492.069 889.143C492.069 891.753 494.205 893.888 496.816 893.888C499.425 893.888 501.561 891.753 501.561 889.143C501.561 886.532 499.425 884.396 496.816 884.396Z"
            fill="#fecf6a" stroke="#fecf6a" stroke-width="5" stroke-miterlimit="10" stroke-linecap="round"
            stroke-linejoin="round" />
        <path id="left" d="M490.7 912.07L485.717 930.343L588.468 913.731L507.786 847.762L503.04 866.271"
            stroke="#fecf6a" stroke-width="5" stroke-miterlimit="10" stroke-linecap="round" stroke-linejoin="round" />
        <path id="right" d="M553.585 933.903L550.025 947.666L652.777 930.817L572.094 865.085L568.298 878.848"
            stroke="#fecf6a" stroke-width="5" stroke-miterlimit="10" stroke-linecap="round" stroke-linejoin="round" />
    </g>
    <g id="lines-decor">
        <path class="line-decor"
            d="M442.41 441.621C468.039 422.874 493.193 411.483 519.533 411.483C551.094 411.483 567.706 427.62 567.706 443.756C567.706 452.299 561.536 461.08 552.281 461.08C543.501 461.08 535.432 455.622 535.432 443.756C535.432 428.806 553.468 398.906 583.13 398.906C607.572 398.906 624.658 417.654 624.658 441.621C624.658 475.716 593.149 493.116 553.942 493.116C465.191 493.116 343.833 399.039 264.574 399.039C217.947 399.039 183.276 431.419 183.276 470.572C183.276 495.488 201.574 515.074 229.337 515.074C264.93 515.074 295.639 481.369 295.639 459.062C295.639 448.384 289.706 440.553 279.028 440.553C272.621 440.553 264.552 443.4 255.06 450.045"
            stroke="lightgreen" stroke-width="3" stroke-miterlimit="10" stroke-linecap="round" stroke-linejoin="round" />
        <path class="line-decor"
            d="M63.0825 226.743C75.1849 187.113 114.815 139.89 162.987 139.89C180.547 139.89 192.412 150.569 192.412 161.959C192.412 168.841 187.666 175.011 177.937 175.011C166.072 175.011 156.817 161.484 156.817 141.076C156.817 110.702 181.497 82.4629 220.414 82.4629C288.045 82.4629 354.49 176.435 427.816 176.435C461.276 176.435 482.158 162.196 496.871 136.568"
            stroke="lightgreen" stroke-width="3" stroke-miterlimit="10" stroke-linecap="round" stroke-linejoin="round" />
        <path class="line-decor"
            d="M952.135 579.018C1010.39 558.017 1048.48 511.862 1048.48 449.969C1048.48 406.78 1025.22 349.827 985.83 349.827C963.761 349.827 947.624 369.998 947.624 398C947.624 468.417 1035.93 547.218 1035.93 639.292C1035.93 716.898 978.483 760.555 906.573 760.555C805.956 760.555 584.791 694.227 494.972 694.227C422.119 694.227 385.575 738.603 385.575 783.691C385.575 830.913 413.814 862.237 476.462 883.357"
            stroke="lightgreen" stroke-width="3" stroke-miterlimit="10" stroke-linecap="round" stroke-linejoin="round" />
        <path class="line-decor"
            d="M165.55 572.616C94.7721 603.233 46.5903 661.301 46.5903 737.417C46.5903 817.626 101.881 876.477 189.446 876.477C292.672 876.477 358.879 776.81 358.879 706.568C358.879 694.941 353.422 685.804 343.217 685.804C334.438 685.804 327.081 693.517 327.081 703.484C327.081 752.13 508.38 822.134 660.728 822.134C784.599 822.134 856.502 768.741 892.335 688.296"
            stroke="lightgreen" stroke-width="3" stroke-miterlimit="10" stroke-linecap="round" stroke-linejoin="round" />
    </g>
</svg>