<?xml version="1.0" encoding="utf-8"?>
<!-- Generator: Adobe Illustrator 25.1.0, SVG Export Plug-In . SVG Version: 6.00 Build 0)  -->
<svg version="1.1"
	 id="Layer_1" xmlns:cc="http://creativecommons.org/ns#" xmlns:dc="http://purl.org/dc/elements/1.1/" xmlns:rdf="http://www.w3.org/1999/02/22-rdf-syntax-ns#" xmlns:svg="http://www.w3.org/2000/svg"
	 xmlns="http://www.w3.org/2000/svg" xmlns:xlink="http://www.w3.org/1999/xlink" x="0px" y="0px" viewBox="0 0 987 198"
	 style="enable-background:new 0 0 987 198;" xml:space="preserve">
<style type="text/css">
	.st0{fill:#FECF6A;stroke:#FECF6A;stroke-width:2.9132;stroke-linecap:round;stroke-linejoin:round;stroke-miterlimit:4.1973;}
	.st1{fill:none;stroke:#FECF6A;stroke-width:2.9132;stroke-linecap:round;stroke-linejoin:round;stroke-miterlimit:4.1973;}
	.st2{fill:none;stroke:#FECF6A;stroke-width:2.9132;stroke-linecap:round;stroke-linejoin:round;stroke-miterlimit:2.0986;}
	.st3{fill:none;stroke:#3CB371;stroke-width:5.5133;stroke-linecap:round;stroke-linejoin:round;stroke-miterlimit:4.1973;}
	.st4{fill:#FECF6A;stroke:#FECF6A;stroke-width:2.7567;stroke-linecap:round;stroke-linejoin:round;stroke-miterlimit:4.1973;}
	.st5{fill:none;stroke:#FECF6A;stroke-width:2.6271;stroke-linecap:round;stroke-linejoin:round;stroke-miterlimit:2.0986;}
	.st6{fill:none;stroke:#90EE90;stroke-width:2.6271;stroke-linecap:round;stroke-linejoin:round;stroke-miterlimit:4.1973;}
	.st7{fill:#FECF6A;stroke:#FECF6A;stroke-width:1.654;stroke-linecap:round;stroke-linejoin:round;stroke-miterlimit:4.1973;}
	.st8{fill:none;stroke:#FECF6A;stroke-width:2.7567;stroke-linecap:round;stroke-linejoin:round;stroke-miterlimit:4.1973;}
</style>
<g id="Layer_2">
</g>
<g id="Layer_1">
	<g id="shuttleworth">
		<path id="logo-light-bottom-dot" class="st0" d="M115.3,169.5c-1.1,0.2-1.8,1.2-1.6,2.3c0.2,1.1,1.2,1.8,2.3,1.7
			c1.1-0.2,1.8-1.2,1.6-2.3C117.4,170.1,116.3,169.3,115.3,169.5z"/>
		<path id="logo-light-top-dot" class="st0" d="M53.5,49.9c-1.1,0.2-1.8,1.2-1.6,2.3c0.2,1.1,1.2,1.8,2.3,1.6
			c1.1-0.2,1.8-1.2,1.7-2.3C55.6,50.5,54.5,49.8,53.5,49.9z"/>
		<path id="logo-right" class="st1" d="M123.1,167.4c16.6-10.8,29.3-27.3,26.1-47c-3.5-21.6-22.8-31.3-26.3-53.1
			c-0.9-5.6-0.4-20.9,7.6-22.2c3.3-0.5,5.2,1.9,5.4,3.7c0.5,3.3-0.9,5.9-7,10.8c-11.8,9.5-23.7,23.9-21.2,39.5
			c0.7,4.1,3.1,7.7,6.9,7.1c3-0.5,4.9-3.5,4.4-6.8c-1.6-10-18.2-14.6-20.4-28.5c-1-5.9,0.8-12-0.6-20.5
			C92.9,18.8,50.6,19.9,48.8,8.6C48.3,6,50,3.3,53,2.8c6.5-1.1,12.7,8.9,14,16.8c2.7,16.8-9.9,38-7.1,55.1
			c5.4,33.1,53.6,40.7,58.9,72.9c0.9,5.7,0.5,11-0.9,15.9"/>
		<path id="logo-left" class="st2" d="M47.5,57.4C29.1,73.7,25.9,97.2,29,116.5c3.5,21.6,18.8,50.6,29.2,48.9
			c3.3-0.5,4.6-3.2,4.3-5.2c-0.4-2.7-2.6-5-10.2-6.8C29.3,148,7.5,135.5,5,119.8c-0.6-3.8,0.9-7.4,3.9-7.9c3.3-0.5,5.6,2.4,6.4,7.5
			c0.7,4.4,0.8,12.6,1.8,18.8c4.9,30.4,34.7,50.9,63,46.3c19.5-3.2,32.8-16.4,29.9-34.1c-4.7-28.7-52.7-34.8-58.9-72.9
			c-0.7-4.5-0.4-10.7,1.1-17.2"/>
		<g id="logo-light-bottom-line">
			<path class="st2" d="M115.8,179.8l-0.1,13.8"/>
			<path class="st2" d="M121.4,177.8l6.2,7"/>
			<path class="st2" d="M109.9,178.4l-5.8,7.9"/>
		</g>
	</g>
	<path id="flash" class="st3" d="M180.9,85.2c2,17.3,14.7,37.5,36.6,37.5c27.9,0,67.4-51,67.4-77.8c0-5.9-2.2-10.1-7.7-10.1
		c-19.8,0-77.5,120.8-77.5,145.4c0,7.6,3.7,11.6,9.9,11.6c14.7,0,31.5-25,31.5-46.4c0-7.6-2.9-15-10.5-15c-2.6,0-4.3,1.4-4.3,2.7
		c0,1.6,1.3,2.5,3.9,2.5c55.9,0,99.4-65.5,99.4-90.7c0-5.9-2.2-10.1-7.7-10.1c-16,0-49.1,66.5-49.1,90.4c0,8.4,2.5,14.3,10.3,14.3
		c9.2,0,22.9-11.6,32.8-33.4c5.5-12,13.7-22.9,23.3-22.9c4.4,0,8.1,3,10.6,6.3c-2.5-3.3-6.1-6.3-10.6-6.3c-16.9,0-30,34.3-30,48
		c0,5.2,1.4,8.2,5.5,8.2c12.6,0,35.5-46.2,40.2-60.2c-8.8,21.1-15.2,37.9-15.2,53.5c0,4.1,1.3,6.7,5,6.7c10.1,0,40.8-48,40.8-60.8
		c0-3.5-2.2-5.6-4.8-5.6c-3.9,0-6.5,4.1-6.5,9.4c0,15,14.1,43.7,14.1,58.2c0,8.6-5,17.1-14.4,17.1c-7.5,0-11.5-5.5-11.5-11.4
		c0-17.5,27.7-38.7,49.7-54.3c27.6-19.5,44.6-34.4,44.6-46.8c0-5.8-3.4-10.5-9.6-10.5c-15,0-33.1,36.5-47.2,104.7
		c20-41.7,38.6-56.3,46.7-56.3c4.1,0,6,2.7,6,6.3c0,9-19,29.7-19,41.9c0,5.2,3.7,8.1,9,8.1c7.5,0,16.1-6.1,22.4-13.9"/>
	<path id="line-dot" class="st4" d="M181.3,71.4c-1.4,0-2.6,1.2-2.6,2.6c0,1.4,1.2,2.6,2.6,2.6c1.4,0,2.6-1.2,2.6-2.6
		C183.9,72.5,182.7,71.4,181.3,71.4z"/>
	<g id="flash-lines">
		<path class="st5" d="M169.6,71.4l-18.2-3.7"/>
		<path class="st5" d="M170.7,80.1l-11.3,5"/>
		<path class="st5" d="M173.4,64l-7.6-9.6"/>
	</g>
	<path class="st6" d="M183.2,63.1c6.7-21.8,28.5-47.9,55.1-47.9c9.7,0,16.2,5.9,16.2,12.2c0,3.8-2.6,7.2-8,7.2"/>
	<path id="forward-light-dot-start" class="st7" d="M518.9,35.5c-1.4,0-2.6,1.2-2.6,2.6c0,1.4,1.2,2.6,2.6,2.6
		c1.4,0,2.6-1.2,2.6-2.6C521.6,36.7,520.4,35.5,518.9,35.5z"/>
	<path id="forward" class="st3" d="M510.6,46.1c-11.9,13.9-21.7,33.6-21.7,48c0,14,6.4,28,30.4,28c27.9,0,67.4-51,67.4-77.8
		c0-5.9-2.2-10.1-7.7-10.1c-19.8,0-77.5,120.8-77.5,145.4c0,7.6,3.7,11.6,9.9,11.6c14.7,0,31.5-25,31.5-46.4c0-7.6-2.9-15-10.5-15
		c-2.6,0-4.3,1.4-4.3,2.7c0,1.6,1.3,2.5,3.9,2.5c22,0,29.2-12.2,40-23.9c4.4-4.8,10.6-9.6,18.3-13.6c-17.4,9.2-26.7,21.5-26.7,31.4
		c0,6.3,3.1,10.1,9.6,10.1c15.6,0,31.1-26.7,31.1-45.4c0-6.4-2.2-10.9-7.7-10.9c-6.1,0-11.3,8.2-11.3,16.1c0,9,5,15.3,13.1,15.3
		c14.3,0,26.7-22.5,26.7-36.6c0-3.5-2-5-4.1-5c-3.9,0-6.8,4.1-6.8,9.4c0,4.6,2.2,10.7,10.5,10.7c5.1,0,12.4-2.6,23-9.9
		c-16.9,20.9-27.7,41.2-27.7,50.1c0,4.1,1.3,6.1,4.6,6.1c11.9,0,38.6-56.3,48.1-56.3c1.7,0,2.4,1.2,2.4,2.6c0,6.8-24.5,34-24.5,47.5
		c0,3.9,2.6,6.1,6.3,6.1c14.3,0,30.5-33.6,42.1-54.7c-11.1,20.3-19.6,36.2-19.6,46.3c0,5.4,2.1,8.4,7.1,8.4c14.5,0,37-42.4,37-54.7
		c0-3.4-1.8-5.5-4.4-5.5c-4.3,0-6.8,4.8-6.8,9.3c0,4.7,2.9,11.4,12.4,11.4c4.2,0,9.9-3.1,14.7-8.8c4.2-4.8,9-8,14.1-8
		c4.4,0,8.1,3,10.6,6.3c-2.5-3.3-6.1-6.3-10.6-6.3c-16.9,0-30,34.3-30,48c0,5.2,1.4,8.2,5.5,8.2c12.6,0,35.5-46.2,40.2-60.2
		c-8.8,21.1-15.2,37.9-15.2,53.5c0,4.1,1.3,6.7,5,6.7c12.6,0,33.1-46.7,33.1-61.5c0-3.5-2-5-4.1-5c-3.9,0-6.8,4.1-6.8,9.4
		c0,4.6,4.8,10.7,13.1,10.7c5.1,0,12.4-2.6,23-9.9c-16.9,20.9-27.7,40.4-27.7,49.3c0,4.1,1.6,6.9,4.6,6.9c6.7,0,21.6-15.8,31.3-35.6
		c5.5-11.1,13.3-20.7,22.2-20.7c4.4,0,8.1,3,10.6,6.3c-2.5-3.3-6.1-6.3-10.6-6.3c-16.9,0-30,34.3-30,48c0,5.2,3,8.2,7.1,8.2
		c18.8,0,69.6-68.4,69.6-95.9c0-4.7-2.2-8.8-7.5-8.8c-17.3,0-30.6,48.4-30.6,73.7c0,21.7,7.8,31,17.8,31c10.5,0,18.1-9.8,23.2-21.8"
		/>
	<g>
		<path id="dot" class="st4" d="M906.1,109.3c-0.9,1.1-0.7,2.8,0.4,3.7c1.1,0.9,2.8,0.7,3.7-0.4c0.9-1.1,0.7-2.8-0.4-3.7
			C908.6,108,907,108.2,906.1,109.3z"/>
		<path id="left" class="st8" d="M915.8,121.5l6.1,8.5l28.5-49.8l-56.2,11.7l6.3,8.4"/>
		<path id="right" class="st8" d="M947,102.1l4.7,6.3L980,58.5l-56.1,11.8l4.6,6.4"/>
	</g>
	<path class="st6" d="M631.3,26.6c14.1-10.3,28-16.6,42.5-16.6c17.4,0,26.6,8.9,26.6,17.8c0,4.7-3.4,9.6-8.5,9.6
		c-4.8,0-9.3-3-9.3-9.6c0-8.2,9.9-24.7,26.3-24.7c13.5,0,22.9,10.3,22.9,23.6c0,18.8-17.4,28.4-39,28.4
		C643.8,55,576.9,3.1,533.2,3.1c-25.7,0-44.8,17.9-44.8,39.4c0,13.7,10.1,24.5,25.4,24.5c19.6,0,36.6-18.6,36.6-30.9
		c0-5.9-3.3-10.2-9.2-10.2c-3.5,0-8,1.6-13.2,5.2"/>
</g>
</svg>
