<?xml version="1.0" encoding="utf-8"?>
<!-- Generator: Adobe Illustrator 25.1.0, SVG Export Plug-In . SVG Version: 6.00 Build 0)  -->
<svg version="1.1"
	 id="Layer_1" xmlns:cc="http://creativecommons.org/ns#" xmlns:dc="http://purl.org/dc/elements/1.1/" xmlns:rdf="http://www.w3.org/1999/02/22-rdf-syntax-ns#" xmlns:svg="http://www.w3.org/2000/svg"
	 xmlns="http://www.w3.org/2000/svg" xmlns:xlink="http://www.w3.org/1999/xlink" x="0px" y="0px" viewBox="0 0 820.7 198"
	 style="enable-background:new 0 0 820.7 198;" xml:space="preserve">
<style type="text/css">
	.st0{fill:#FECF6A;stroke:#FECF6A;stroke-width:2.5;stroke-linecap:round;stroke-linejoin:round;stroke-miterlimit:4.1973;}
	.st1{fill:none;stroke:#FECF6A;stroke-width:2.5;stroke-linecap:round;stroke-linejoin:round;stroke-miterlimit:4.1973;}
	.st2{fill:none;stroke:#FECF6A;stroke-width:2.5;stroke-linecap:round;stroke-linejoin:round;stroke-miterlimit:2.0986;}
	.st3{fill:none;stroke:#3CB371;stroke-width:4.1973;stroke-linecap:round;stroke-linejoin:round;stroke-miterlimit:4.1973;}
	.st4{fill:#FECF6A;stroke:#FECF6A;stroke-width:2.0986;stroke-linecap:round;stroke-linejoin:round;stroke-miterlimit:4.1973;}
	.st5{fill:none;stroke:#FECF6A;stroke-width:2;stroke-linecap:round;stroke-linejoin:round;stroke-miterlimit:2.0986;}
	.st6{fill:none;stroke:#90EE90;stroke-width:2;stroke-linecap:round;stroke-linejoin:round;stroke-miterlimit:4.1973;}
	.st7{fill:#FECF6A;stroke:#FECF6A;stroke-width:1.2592;stroke-linecap:round;stroke-linejoin:round;stroke-miterlimit:4.1973;}
	.st8{fill:none;stroke:#FECF6A;stroke-width:2.0986;stroke-linecap:round;stroke-linejoin:round;stroke-miterlimit:4.1973;}
</style>
<g id="Layer_2">
</g>
<g id="Layer_1">
	<g id="shuttleworth">
		<path id="logo-light-bottom-dot" class="st0" d="M108.2,164c-1,0.2-1.7,1.1-1.5,2.1c0.2,1,1.1,1.7,2.1,1.5c1-0.2,1.7-1.1,1.5-2.1
			C110.2,164.5,109.2,163.8,108.2,164z"/>
		<path id="logo-light-top-dot" class="st0" d="M51.1,53.5c-1,0.2-1.7,1.1-1.5,2.1c0.2,1,1.1,1.7,2.1,1.5c1-0.2,1.7-1.1,1.5-2.1
			C53.1,54,52.1,53.3,51.1,53.5z"/>
		<path id="logo-right" class="st1" d="M115.5,162.1c15.4-10,27.1-25.2,24.1-43.5c-3.2-19.9-21.1-28.9-24.3-49.1
			c-0.8-5.2-0.3-19.3,7-20.5c3-0.5,4.8,1.7,5,3.4c0.5,3-0.8,5.5-6.5,10C110,71.2,98.9,84.5,101.3,99c0.6,3.8,2.8,7.1,6.4,6.5
			c2.7-0.4,4.5-3.3,4-6.3c-1.5-9.3-16.8-13.5-18.9-26.4c-0.9-5.5,0.7-11.1-0.6-19c-4.8-29.2-43.8-28.2-45.5-38.6
			c-0.4-2.5,1.2-5,3.9-5.4c6-1,11.7,8.2,12.9,15.6c2.5,15.6-9.1,35.1-6.6,51c5,30.6,49.6,37.6,54.4,67.4c0.9,5.3,0.4,10.2-0.9,14.7"
			/>
		<path id="logo-left" class="st2" d="M45.6,60.4c-17,15.1-20,36.8-17.1,54.6c3.2,19.9,17.4,46.8,27,45.2c3-0.5,4.3-2.9,4-4.9
			c-0.4-2.5-2.4-4.6-9.4-6.3c-21.3-5-41.4-16.5-43.7-31c-0.6-3.6,0.8-6.9,3.6-7.3c3-0.5,5.1,2.2,5.9,6.9c0.7,4.1,0.8,11.6,1.7,17.4
			c4.6,28.1,32,47,58.3,42.8c18-2.9,30.3-15.1,27.7-31.5c-4.3-26.5-48.7-32.2-54.4-67.4c-0.7-4.2-0.4-9.9,1-15.9"/>
		<g id="logo-light-bottom-line">
			<path class="st2" d="M108.7,173.5l-0.1,12.7"/>
			<path class="st2" d="M113.9,171.7l5.7,6.5"/>
			<path class="st2" d="M103.3,172.2l-5.4,7.3"/>
		</g>
	</g>
	<path id="flash" class="st3" d="M163.9,91.8c1.5,13.1,11.2,28.6,27.9,28.6c21.2,0,51.3-38.8,51.3-59.3c0-4.5-1.7-7.7-5.9-7.7
		c-15,0-59,91.9-59,110.7c0,5.8,2.8,8.9,7.6,8.9c11.2,0,24-19,24-35.4c0-5.8-2.2-11.5-8-11.5c-2,0-3.3,1.1-3.3,2.1
		c0,1.2,1,1.9,3,1.9c42.5,0,75.7-49.9,75.7-69c0-4.5-1.7-7.7-5.9-7.7c-12.2,0-37.4,50.6-37.4,68.8c0,6.4,1.9,10.9,7.9,10.9
		c7,0,17.4-8.9,25-25.4c4.2-9.2,10.5-17.4,17.7-17.4c3.4,0,6.2,2.3,8.1,4.8c-1.9-2.5-4.7-4.8-8.1-4.8c-12.8,0-22.8,26.1-22.8,36.6
		c0,4,1.1,6.3,4.2,6.3c9.6,0,27-35.2,30.6-45.8c-6.7,16-11.6,28.9-11.6,40.7c0,3.1,1,5.1,3.8,5.1c7.7,0,31.1-36.6,31.1-46.3
		c0-2.7-1.7-4.3-3.7-4.3c-3,0-5,3.1-5,7.2c0,11.5,10.8,33.3,10.8,44.3c0,6.6-3.8,13-11,13c-5.7,0-8.8-4.2-8.8-8.7
		c0-13.3,21.1-29.5,37.8-41.3c21-14.8,34-26.2,34-35.7c0-4.4-2.6-8-7.3-8c-11.5,0-25.2,27.8-36,79.7c15.2-31.8,29.4-42.8,35.6-42.8
		c3.1,0,4.6,2.1,4.6,4.8c0,6.9-14.4,22.6-14.4,31.9c0,4,2.8,6.2,6.9,6.2c5.7,0,12.3-4.7,17-10.6"/>
	<path id="line-dot" class="st4" d="M164.2,81.3c-1.1,0-2,0.9-2,2c0,1.1,0.9,2,2,2c1.1,0,2-0.9,2-2
		C166.2,82.2,165.3,81.3,164.2,81.3z"/>
	<g id="flash-lines">
		<path class="st5" d="M155.3,81.3l-13.8-2.8"/>
		<path class="st5" d="M156.1,88l-8.6,3.8"/>
		<path class="st5" d="M158.2,75.7l-5.8-7.3"/>
	</g>
	<path class="st6" d="M165.7,75c5.1-16.6,21.7-36.5,41.9-36.5c7.4,0,12.4,4.5,12.4,9.3c0,2.9-2,5.5-6.1,5.5c-5,0-8.9-5.7-8.9-14.2
		c0-12.7,10.4-24.6,26.7-24.6c28.4,0,56.3,39.4,87.1,39.4c14,0,22.8-6,29-16.7"/>
	<path id="forward-light-dot-start" class="st7" d="M421.2,54c-1.1,0-2,0.9-2,2c0,1.1,0.9,2,2,2c1.1,0,2-0.9,2-2
		C423.2,54.9,422.3,54,421.2,54z"/>
	<path id="forward-light-dot-end" class="st7" d="M712.7,106.5c-1.1,0-2,0.9-2,2c0,1.1,0.9,2,2,2c1.1,0,2-0.9,2-2
		C714.6,107.4,713.7,106.5,712.7,106.5z"/>
	<path id="forward" class="st3" d="M414.8,62.1c-9.1,10.6-16.5,25.6-16.5,36.6c0,10.7,4.9,21.3,23.1,21.3
		c21.2,0,51.3-38.8,51.3-59.3c0-4.5-1.7-7.7-5.9-7.7c-15,0-59,91.9-59,110.7c0,5.8,2.8,8.9,7.6,8.9c11.2,0,24-19,24-35.4
		c0-5.8-2.2-11.5-8-11.5c-2,0-3.3,1.1-3.3,2.1c0,1.2,1,1.9,3,1.9c16.7,0,22.2-9.3,30.5-18.2c3.4-3.7,8.1-7.3,13.9-10.4
		c-13.2,7-20.3,16.3-20.3,23.9c0,4.8,2.4,7.7,7.3,7.7c11.9,0,23.7-20.3,23.7-34.6c0-4.9-1.7-8.3-5.9-8.3c-4.7,0-8.6,6.3-8.6,12.3
		c0,6.9,3.8,11.7,10,11.7c10.9,0,20.3-17.1,20.3-27.9c0-2.7-1.5-3.8-3.1-3.8c-3,0-5.2,3.1-5.2,7.2c0,3.5,1.7,8.2,8,8.2
		c3.9,0,9.5-2,17.5-7.6c-12.8,15.9-21.1,31.4-21.1,38.1c0,3.1,1,4.7,3.5,4.7c9.1,0,29.4-42.8,36.7-42.8c1.3,0,1.8,0.9,1.8,2
		c0,5.2-18.6,25.9-18.6,36.2c0,3,2,4.7,4.8,4.7c10.9,0,23.2-25.6,32.1-41.6c-8.5,15.4-14.9,27.6-14.9,35.3c0,4.1,1.6,6.4,5.4,6.4
		c11.1,0,28.2-32.3,28.2-41.6c0-2.6-1.4-4.2-3.4-4.2c-3.3,0-5.2,3.7-5.2,7.1c0,3.6,2.2,8.7,9.5,8.7c3.2,0,7.6-2.4,11.2-6.7
		c3.2-3.7,6.9-6.1,10.8-6.1c3.4,0,6.2,2.3,8.1,4.8c-1.9-2.5-4.7-4.8-8.1-4.8c-12.8,0-22.8,26.1-22.8,36.6c0,4,1.1,6.3,4.2,6.3
		c9.6,0,27-35.2,30.6-45.8c-6.7,16-11.6,28.9-11.6,40.7c0,3.1,1,5.1,3.8,5.1c9.6,0,25.2-35.6,25.2-46.8c0-2.7-1.5-3.8-3.1-3.8
		c-3,0-5.2,3.1-5.2,7.2c0,3.5,3.7,8.2,10,8.2c3.9,0,9.5-2,17.5-7.6c-12.8,15.9-21.1,30.8-21.1,37.6c0,3.1,1.2,5.3,3.5,5.3
		c5.1,0,16.4-12.1,23.8-27.1c4.2-8.5,10.2-15.7,16.9-15.7c3.4,0,6.2,2.3,8.1,4.8c-1.9-2.5-4.7-4.8-8.1-4.8
		c-12.8,0-22.8,26.1-22.8,36.6c0,4,2.3,6.3,5.4,6.3c14.3,0,53-52.1,53-73c0-3.6-1.7-6.7-5.7-6.7c-13.1,0-23.3,36.9-23.3,56.1
		c0,16.5,6,23.6,13.5,23.6c8,0,13.7-7.5,17.6-16.6"/>
	<g>
		<path id="dot" class="st4" d="M749.1,160.8c-1,0.5-1.4,1.7-0.9,2.7c0.5,1,1.7,1.4,2.7,0.9c1-0.5,1.4-1.7,0.9-2.7
			C751.3,160.8,750.1,160.4,749.1,160.8z"/>
		<path id="left" class="st8" d="M752,172.4l1.5,7.8l35.5-25.4l-42.7-9.7l1.7,7.8"/>
		<path id="right" class="st8" d="M779.7,168.8l1.2,5.8l35.5-25.5l-42.6-9.6l1.1,5.9"/>
	</g>
	<path class="st6" d="M506.7,47.2c10.8-7.9,21.3-12.6,32.4-12.6c13.2,0,20.2,6.8,20.2,13.5c0,3.6-2.6,7.3-6.5,7.3
		c-3.7,0-7.1-2.3-7.1-7.3c0-6.3,7.6-18.8,20-18.8c10.3,0,17.4,7.9,17.4,17.9c0,14.3-13.2,21.6-29.7,21.6
		c-37.3,0-88.2-39.5-121.5-39.5c-19.6,0-34.1,13.6-34.1,30c0,10.5,7.7,18.7,19.3,18.7c14.9,0,27.8-14.1,27.8-23.5
		c0-4.5-2.5-7.8-7-7.8c-2.7,0-6.1,1.2-10.1,4"/>
	<path class="st6" d="M720.7,104.8c24.5-8.8,40.4-28.2,40.4-54.2c0-18.1-9.8-42-26.3-42c-9.3,0-16,8.5-16,20.2
		c0,29.6,23.8,59.5,20.2,98c-2.8,30.9-26.3,55-56,63c0,0-84.4,11.4-74.4-32.8c9.3-41.1,97.4,30.5,132.4,8.6"/>
</g>
</svg>
