<svg width="175" height="242" viewBox="0 0 175 242" fill="none" xmlns="http://www.w3.org/2000/svg">
<g id="logoShuttleworth">
<path id="logo-light-bottom-dot" d="M123.528 212.074C122.2 212.074 121.114 213.16 121.114 214.488C121.114 215.815 122.2 216.901 123.528 216.901C124.855 216.901 125.941 215.815 125.941 214.488C125.941 213.16 124.855 212.074 123.528 212.074Z" fill="#27AE3C" stroke="#27AE3C" stroke-width="2" stroke-miterlimit="10" stroke-linecap="round" stroke-linejoin="round"/>
<path id="logo-light-top-dot" d="M72.9687 57.3818C71.6417 57.3818 70.5557 58.4678 70.5557 59.7953C70.5557 61.1223 71.6417 62.2083 72.9687 62.2083C74.2962 62.2083 75.3821 61.1223 75.3821 59.7953C75.3821 58.4678 74.2962 57.3818 72.9687 57.3818Z" fill="#27AE3C" stroke="#27AE3C" stroke-width="2" stroke-miterlimit="10" stroke-linecap="round" stroke-linejoin="round"/>
<path id="logo-right" d="M133.301 211.109C155.263 201.456 173.604 184.201 173.604 160.068C173.604 133.642 152.487 118.318 152.487 91.53C152.487 84.6521 156.107 66.5523 165.881 66.5523C169.863 66.5523 171.673 69.8103 171.673 71.9822C171.673 75.9642 169.501 78.8601 161.175 83.5661C145.247 92.6159 128.234 107.458 128.234 126.643C128.234 131.711 130.406 136.417 135.111 136.417C138.731 136.417 141.627 133.159 141.627 129.177C141.627 116.87 122.804 108.182 122.804 91.168C122.804 83.9281 126.062 77.0502 126.062 66.5523C126.062 27.8189 75.3823 20.941 75.3823 7.18516C75.3823 3.92721 77.9163 1.03125 81.5362 1.03125C89.5001 1.03125 94.93 14.0631 94.93 23.8369C94.93 44.4706 75.7443 67.2763 75.7443 88.272C75.7443 128.815 131.854 147.277 131.854 186.735C131.854 193.733 130.285 200.008 127.63 205.558" stroke="#27AE3C" stroke-width="2" stroke-miterlimit="10" stroke-linecap="round" stroke-linejoin="round"/>
<path id="logo-left" d="M64.4017 65.1045C39.3032 81.0323 30.8567 108.423 30.8567 132.074C30.8567 158.499 43.5266 196.147 56.1964 196.147C60.1783 196.147 62.3503 193.251 62.3503 190.717C62.3503 187.459 60.1783 184.201 51.4904 180.581C25.0648 169.721 1.53516 150.535 1.53516 131.35C1.53516 126.644 4.06912 122.662 7.68907 122.662C11.671 122.662 13.843 126.644 13.843 132.798C13.843 138.227 12.395 148.001 12.395 155.603C12.395 192.889 43.8886 223.055 78.6401 223.055C102.532 223.055 120.993 209.902 120.993 188.183C120.993 153.069 64.8843 136.417 64.8843 89.7201C64.8843 84.1697 66.4528 76.8092 69.4696 69.4484" stroke="#27AE3C" stroke-width="2" stroke-miterlimit="10" stroke-linecap="round" stroke-linejoin="round"/>
<g id="logo-light-bottom-line">
<path id="Vector" d="M122.2 224.502L119.425 240.912" stroke="#27AE3C" stroke-width="2" stroke-miterlimit="10" stroke-linecap="round" stroke-linejoin="round"/>
<path id="Vector_2" d="M129.199 223.175L135.232 232.707" stroke="#27AE3C" stroke-width="2" stroke-miterlimit="10" stroke-linecap="round" stroke-linejoin="round"/>
<path id="Vector_3" d="M115.443 221.606L106.996 229.932" stroke="#27AE3C" stroke-width="2" stroke-miterlimit="10" stroke-linecap="round" stroke-linejoin="round"/>
</g>
</g>
</svg>
