<svg width="510" height="123" viewBox="0 0 510 123" fill="none" xmlns="http://www.w3.org/2000/svg">
<path d="M1.59814 40.0149C3.09033 53.1456 12.74 68.5641 29.4525 68.5641C50.6416 68.5641 80.6841 29.7688 80.6841 9.37648C80.6841 4.9001 78.9931 1.7168 74.815 1.7168C59.7935 1.7168 15.9231 93.5325 15.9231 112.234C15.9231 118.003 18.7088 121.087 23.4838 121.087C34.6253 121.087 47.4581 102.087 47.4581 85.7734C47.4581 80.0039 45.2697 74.3338 39.4997 74.3338C37.5103 74.3338 36.2169 75.4279 36.2169 76.4228C36.2169 77.6165 37.2119 78.3128 39.2013 78.3128C81.6791 78.3128 114.806 28.4757 114.806 9.37648C114.806 4.9001 113.114 1.7168 108.936 1.7168C96.7997 1.7168 71.6316 52.2504 71.6316 70.4543C71.6316 76.8206 73.5216 81.297 79.4903 81.297C86.4541 81.297 96.8994 72.4436 104.459 55.9308C108.638 46.779 114.905 38.5228 122.167 38.5228C125.549 38.5228 128.334 40.8105 130.225 43.2976C128.334 40.8105 125.549 38.5228 122.167 38.5228C109.334 38.5228 99.3863 64.5852 99.3863 75.0301C99.3863 79.009 100.481 81.297 103.564 81.297C113.114 81.297 130.523 46.1822 134.104 35.5385C127.439 51.5538 122.565 64.3861 122.565 76.2238C122.565 79.3074 123.559 81.297 126.345 81.297C134.005 81.297 157.383 44.7897 157.383 35.0411C157.383 32.3552 155.692 30.7637 153.702 30.7637C150.717 30.7637 148.728 33.8474 148.728 37.9259C148.728 49.3655 159.472 71.1505 159.472 82.1923C159.472 88.7576 155.692 95.2233 148.529 95.2233C142.859 95.2233 139.775 91.0454 139.775 86.569C139.775 73.2395 160.864 57.1246 177.577 45.2869C198.567 30.4653 211.499 19.1251 211.499 9.67491C211.499 5.2979 208.913 1.7168 204.237 1.7168C192.797 1.7168 179.069 29.4704 168.325 81.297C183.545 49.5645 197.672 38.5228 203.839 38.5228C206.923 38.5228 208.415 40.6118 208.415 43.2976C208.415 50.1614 193.991 65.8783 193.991 75.1295C193.991 79.1087 196.776 81.297 200.855 81.297C206.525 81.297 213.091 76.6216 217.866 70.7527" stroke="black" stroke-width="2" stroke-miterlimit="10" stroke-linecap="round" stroke-linejoin="round"/>
<path d="M234.88 8.37487C225.783 18.9716 218.285 34.0671 218.285 45.0639C218.285 55.7609 223.184 66.4575 241.479 66.4575C268.27 66.4575 307.659 37.9659 307.659 14.673C307.659 6.97518 302.96 1.97656 295.762 1.97656C274.868 1.97656 253.475 37.666 253.475 56.6606C253.475 67.6571 259.473 73.2556 267.871 73.2556C279.367 73.2556 294.463 63.4584 300.961 49.4627C286.165 85.052 269.47 119.242 247.177 119.242C238.779 119.242 233.481 113.344 233.481 106.346C233.481 92.6499 249.876 84.5523 274.469 81.753C299.661 78.854 308.659 73.1557 317.256 53.0616C320.255 46.0635 322.455 37.0662 322.455 32.2676C322.455 29.5684 320.955 28.4689 319.355 28.4689C316.356 28.4689 314.157 31.5679 314.157 35.6668C314.157 39.1656 317.856 43.8643 324.154 43.8643C328.053 43.8643 333.651 41.8648 341.748 36.2666C328.852 52.2618 320.555 67.1575 320.555 73.9553C320.555 77.0546 321.755 79.2538 324.054 79.2538C329.152 79.2538 340.549 67.1575 347.947 52.0617C352.146 43.5644 358.144 36.2666 364.942 36.2666C368.341 36.2666 371.14 38.5657 373.039 41.0652C371.14 38.5657 368.341 36.2666 364.942 36.2666C352.046 36.2666 342.048 62.4588 342.048 72.9557C342.048 76.9544 343.148 79.2538 346.247 79.2538C355.844 79.2538 373.339 43.9641 376.938 33.2675C370.24 49.3625 365.342 62.2587 365.342 73.5555C365.342 77.2543 366.341 79.2538 369.34 79.2538C380.237 79.2538 391.634 46.7635 397.032 33.2675C393.133 44.8639 388.235 62.4588 384.736 79.2538C400.031 47.3633 414.227 36.2666 420.425 36.2666C423.525 36.2666 425.024 38.366 425.024 41.0652C425.024 47.9632 410.528 63.7583 410.528 73.0555C410.528 77.0546 413.328 79.2538 417.426 79.2538C420.825 79.2538 424.924 77.5542 429.323 73.4556C436.021 67.1575 443.319 55.3608 449.617 35.7667C452.216 27.7689 455.215 18.7716 458.614 9.2746C449.716 34.567 442.719 55.8607 442.719 65.7578C442.719 73.6554 447.317 79.2538 455.615 79.2538C466.412 79.2538 484.606 61.1593 484.606 43.8643C484.606 39.2657 482.207 36.2666 478.208 36.2666C474.209 36.2666 470.81 40.3652 470.81 45.7636C470.81 63.5585 494.603 79.8536 494.603 97.5484C494.603 106.546 488.305 113.244 480.008 113.244C472.21 113.244 466.312 107.646 466.312 99.8478C466.312 84.7521 486.506 67.1575 508.899 67.1575" stroke="black" stroke-width="2" stroke-miterlimit="10" stroke-linecap="round" stroke-linejoin="round"/>
<path d="M480.807 22.9702C477.408 25.3695 473.509 26.2692 469.311 26.2692C455.915 26.2692 439.319 16.8721 426.823 16.8721C423.224 16.8721 419.925 17.6719 417.126 19.7713" stroke="black" stroke-width="2" stroke-miterlimit="10" stroke-linecap="round" stroke-linejoin="round"/>
</svg>
