<svg width="1562" height="1415" viewBox="0 0 1562 1415" fill="none" xmlns="http://www.w3.org/2000/svg">
<path d="M630.554 1258.58C626.886 1258.58 623.886 1261.58 623.886 1265.25C623.886 1268.91 626.886 1271.91 630.554 1271.91C634.22 1271.91 637.22 1268.91 637.22 1265.25C637.22 1261.58 634.22 1258.58 630.554 1258.58Z" fill="#82DF24" stroke="#82DF24" stroke-width="4" stroke-miterlimit="10" stroke-linecap="round" stroke-linejoin="round"/>
<path d="M1395.55 930.246C1478.55 968.246 1524.89 1039.91 1524.89 1130.91C1524.89 1252.58 1421.89 1353.25 1280.22 1353.25C1123.89 1353.25 1018.22 1248.91 1018.22 1137.58C1018.22 1097.58 1035.89 1048.91 1069.89 1048.91C1087.22 1048.91 1099.55 1062.91 1099.55 1078.91C1099.55 1117.25 1049.55 1146.25 979.554 1146.25C792.886 1146.25 489.554 991.913 360.554 991.913C300.887 991.913 267.22 1025.58 267.22 1054.91C267.22 1072.91 279.22 1084.91 295.887 1084.91C321.554 1084.91 341.554 1057.91 341.554 1020.25C341.554 953.579 282.887 881.913 195.887 881.913C104.554 881.913 35.554 947.913 35.554 1046.91C35.554 1238.91 322.554 1265.25 597.22 1265.25" stroke="#82DF24" stroke-width="5" stroke-miterlimit="10" stroke-linecap="round" stroke-linejoin="round"/>
<path d="M730.886 677.246C766.886 650.913 802.22 634.913 839.22 634.913C883.554 634.913 906.886 657.579 906.886 680.246C906.886 692.246 898.22 704.579 885.22 704.579C872.886 704.579 861.554 696.913 861.554 680.246C861.554 659.246 886.886 617.246 928.554 617.246C962.886 617.246 986.886 643.579 986.886 677.246C986.886 725.246 942.554 749.579 887.554 749.579C762.886 749.579 592.554 617.579 481.22 617.579C415.554 617.579 366.887 662.913 366.887 717.913C366.887 752.913 392.554 780.579 431.554 780.579C481.554 780.579 524.887 732.913 524.887 701.579C524.887 686.579 516.554 675.579 501.554 675.579C492.554 675.579 481.22 679.579 467.887 688.913" stroke="#82DF24" stroke-width="5" stroke-miterlimit="10" stroke-linecap="round" stroke-linejoin="round"/>
<path d="M198.22 375.246C215.22 319.58 270.887 253.246 338.554 253.246C363.22 253.246 379.887 268.246 379.887 284.246C379.887 293.913 373.22 302.58 359.554 302.58C342.887 302.58 329.887 283.58 329.887 254.913C329.887 212.246 364.554 172.58 419.22 172.58C514.22 172.58 607.554 304.58 710.554 304.58C757.554 304.58 786.886 284.58 807.554 248.58" stroke="#82DF24" stroke-width="5" stroke-miterlimit="10" stroke-linecap="round" stroke-linejoin="round"/>
<path d="M1243.55 775.579C1232.22 783.579 1219.22 786.579 1205.22 786.579C1160.55 786.579 1105.22 755.246 1063.55 755.246C1051.55 755.246 1040.55 757.913 1031.22 764.913" stroke="#27AE3C" stroke-width="8" stroke-miterlimit="10" stroke-linecap="round" stroke-linejoin="round"/>
<path d="M423.554 726.913C393.22 762.246 368.22 812.579 368.22 849.246C368.22 884.913 384.554 920.579 445.554 920.579C534.886 920.579 666.22 825.579 666.22 747.913C666.22 722.246 650.554 705.579 626.554 705.579C556.886 705.579 485.554 824.579 485.554 887.913C485.554 924.579 505.554 943.246 533.554 943.246C571.886 943.246 622.22 910.579 643.886 863.913C594.554 982.579 538.886 1096.58 464.554 1096.58C436.554 1096.58 418.887 1076.91 418.887 1053.58C418.887 1007.91 473.554 980.913 555.554 971.579C639.554 961.913 669.554 942.913 698.22 875.913C708.22 852.579 715.554 822.579 715.554 806.579C715.554 797.579 710.554 793.913 705.22 793.913C695.22 793.913 687.886 804.246 687.886 817.913C687.886 829.579 700.22 845.246 721.22 845.246C734.22 845.246 752.886 838.579 779.886 819.913C736.886 873.246 709.22 922.913 709.22 945.579C709.22 955.913 713.22 963.246 720.886 963.246C737.886 963.246 775.886 922.913 800.554 872.579C814.554 844.246 834.554 819.913 857.22 819.913C868.554 819.913 877.886 827.579 884.22 835.913C877.886 827.579 868.554 819.913 857.22 819.913C814.22 819.913 780.886 907.246 780.886 942.246C780.886 955.579 784.554 963.246 794.886 963.246C826.886 963.246 885.22 845.579 897.22 809.913C874.886 863.579 858.554 906.579 858.554 944.246C858.554 956.579 861.886 963.246 871.886 963.246C908.22 963.246 946.22 854.913 964.22 809.913C951.22 848.579 934.886 907.246 923.22 963.246C974.22 856.913 1021.55 819.913 1042.22 819.913C1052.55 819.913 1057.55 826.913 1057.55 835.913C1057.55 858.913 1009.22 911.579 1009.22 942.579C1009.22 955.913 1018.55 963.246 1032.22 963.246C1043.55 963.246 1057.22 957.579 1071.89 943.913C1094.22 922.913 1118.55 883.579 1139.55 818.246C1148.22 791.579 1158.22 761.579 1169.55 729.913C1139.89 814.246 1116.55 885.246 1116.55 918.246C1116.55 944.579 1131.89 963.246 1159.55 963.246C1195.55 963.246 1256.22 902.913 1256.22 845.246C1256.22 829.913 1248.22 819.913 1234.89 819.913C1221.55 819.913 1210.22 833.579 1210.22 851.579C1210.22 910.913 1289.55 965.246 1289.55 1024.25C1289.55 1054.25 1268.55 1076.58 1240.89 1076.58C1214.89 1076.58 1195.22 1057.91 1195.22 1031.91C1195.22 981.579 1262.55 922.913 1337.22 922.913" stroke="#27AE3C" stroke-width="8" stroke-miterlimit="10" stroke-linecap="round" stroke-linejoin="round"/>
<path d="M192.22 431.58C197.22 475.58 229.554 527.246 285.554 527.246C356.554 527.246 457.22 397.246 457.22 328.913C457.22 313.913 451.554 303.246 437.554 303.246C387.22 303.246 240.22 610.913 240.22 673.579C240.22 692.913 249.554 703.246 265.554 703.246C302.887 703.246 345.887 639.579 345.887 584.913C345.887 565.58 338.554 546.58 319.22 546.58C312.554 546.58 308.22 550.246 308.22 553.58C308.22 557.58 311.554 559.913 318.22 559.913C460.554 559.913 571.554 392.913 571.554 328.913C571.554 313.913 565.886 303.246 551.886 303.246C511.22 303.246 426.887 472.58 426.887 533.58C426.887 554.913 433.22 569.913 453.22 569.913C476.554 569.913 511.554 540.246 536.886 484.913C550.886 454.246 571.886 426.58 596.22 426.58C607.554 426.58 616.886 434.246 623.22 442.58C616.886 434.246 607.554 426.58 596.22 426.58C553.22 426.58 519.887 513.913 519.887 548.913C519.887 562.246 523.554 569.913 533.886 569.913C565.886 569.913 624.22 452.246 636.22 416.58C613.886 470.246 597.554 513.246 597.554 552.913C597.554 563.246 600.886 569.913 610.22 569.913C635.886 569.913 714.22 447.58 714.22 414.913C714.22 405.913 708.554 400.58 701.886 400.58C691.886 400.58 685.22 410.913 685.22 424.58C685.22 462.913 721.22 535.913 721.22 572.913C721.22 594.913 708.554 616.579 684.554 616.579C665.554 616.579 655.22 602.579 655.22 587.579C655.22 542.913 725.886 488.913 781.886 449.246C852.22 399.58 895.554 361.58 895.554 329.913C895.554 315.246 886.886 303.246 871.22 303.246C832.886 303.246 786.886 396.246 750.886 569.913C801.886 463.58 849.22 426.58 869.886 426.58C880.22 426.58 885.22 433.58 885.22 442.58C885.22 465.58 836.886 518.246 836.886 549.246C836.886 562.58 846.22 569.913 859.886 569.913C878.886 569.913 900.886 554.246 916.886 534.58" stroke="#27AE3C" stroke-width="8" stroke-miterlimit="10" stroke-linecap="round" stroke-linejoin="round"/>
<path d="M166.22 418.58L137.22 431.246" stroke="#82DF24" stroke-width="10" stroke-miterlimit="10" stroke-linecap="round" stroke-linejoin="round"/>
<path d="M163.554 396.246L116.887 386.913" stroke="#82DF24" stroke-width="10" stroke-miterlimit="10" stroke-linecap="round" stroke-linejoin="round"/>
<path d="M173.22 377.58L153.554 353.246" stroke="#82DF24" stroke-width="10" stroke-miterlimit="10" stroke-linecap="round" stroke-linejoin="round"/>
<path d="M655.803 1238.27L680.788 1218.85" stroke="#82DF24" stroke-width="10" stroke-miterlimit="10" stroke-linecap="round" stroke-linejoin="round"/>
<path d="M663.89 1259.26L711.418 1256.81" stroke="#82DF24" stroke-width="10" stroke-miterlimit="10" stroke-linecap="round" stroke-linejoin="round"/>
<path d="M659.122 1279.73L684.177 1298.47" stroke="#82DF24" stroke-width="10" stroke-miterlimit="10" stroke-linecap="round" stroke-linejoin="round"/>
<path d="M1367.22 916.246C1363.55 916.246 1360.55 919.246 1360.55 922.913C1360.55 926.579 1363.55 929.579 1367.22 929.579C1370.89 929.579 1373.89 926.579 1373.89 922.913C1373.89 919.246 1370.89 916.246 1367.22 916.246Z" fill="#82DF24"/>
<path d="M444.887 699.913C441.22 699.913 438.22 702.913 438.22 706.579C438.22 710.246 441.22 713.246 444.887 713.246C448.554 713.246 451.554 710.246 451.554 706.579C451.554 702.913 448.554 699.913 444.887 699.913Z" fill="#3BA933"/>
<path d="M193.22 396.246C189.554 396.246 186.554 399.246 186.554 402.913C186.554 406.58 189.554 409.58 193.22 409.58C196.887 409.58 199.887 406.58 199.887 402.913C199.887 399.246 196.887 396.246 193.22 396.246Z" fill="#82DF24"/>
<path d="M1275.84 647.434C1272.16 647.434 1269.16 650.439 1269.16 654.113C1269.16 657.787 1272.16 660.792 1275.84 660.792C1279.51 660.792 1282.52 657.787 1282.52 654.113C1282.52 650.439 1279.51 647.434 1275.84 647.434Z" fill="#27AE3C" stroke="#3BA933" stroke-width="4" stroke-miterlimit="10" stroke-linecap="round" stroke-linejoin="round"/>
<path d="M1135.92 219.316C1132.24 219.316 1129.24 222.322 1129.24 225.996C1129.24 229.668 1132.24 232.674 1135.92 232.674C1139.59 232.674 1142.59 229.668 1142.59 225.996C1142.59 222.322 1139.59 219.316 1135.92 219.316Z" fill="#27AE3C" stroke="#3BA933" stroke-width="4" stroke-miterlimit="10" stroke-linecap="round" stroke-linejoin="round"/>
<path d="M1302.89 644.763C1363.67 618.047 1414.43 570.293 1414.43 503.504C1414.43 430.371 1355.99 387.959 1355.99 313.823C1355.99 294.788 1366 244.696 1393.05 244.696C1404.07 244.696 1409.08 253.713 1409.08 259.724C1409.08 270.744 1403.07 278.759 1380.03 291.783C1335.95 316.829 1288.86 357.904 1288.86 411.001C1288.86 425.027 1294.87 438.051 1307.9 438.051C1317.92 438.051 1325.93 429.034 1325.93 418.014C1325.93 383.951 1273.83 359.907 1273.83 312.821C1273.83 292.785 1282.85 273.75 1282.85 244.696C1282.85 137.5 1142.59 118.465 1142.59 80.3955C1142.59 71.3789 1149.61 63.3643 1159.63 63.3643C1181.67 63.3643 1196.69 99.4303 1196.69 126.48C1196.69 183.584 1143.6 246.7 1143.6 304.807C1143.6 417.012 1298.88 468.106 1298.88 577.306C1298.88 596.675 1294.54 614.04 1287.19 629.401" stroke="#3BA933" stroke-width="4" stroke-miterlimit="10" stroke-linecap="round" stroke-linejoin="round"/>
<path d="M1112.21 240.689C1042.74 284.77 1019.37 360.576 1019.37 426.029C1019.37 499.163 1054.43 603.354 1089.5 603.354C1100.52 603.354 1106.53 595.339 1106.53 588.326C1106.53 579.31 1100.52 570.293 1076.47 560.275C1003.34 530.22 938.22 477.123 938.22 424.025C938.22 411.001 945.233 399.981 955.251 399.981C966.271 399.981 972.282 411.001 972.282 428.033C972.282 443.06 968.275 470.11 968.275 491.148C968.275 594.337 1055.43 677.824 1151.61 677.824C1217.73 677.824 1268.83 641.423 1268.83 581.313C1268.83 484.135 1113.54 438.051 1113.54 308.814C1113.54 293.453 1117.88 273.083 1126.23 252.711" stroke="#3BA933" stroke-width="4" stroke-miterlimit="10" stroke-linecap="round" stroke-linejoin="round"/>
<path d="M1272.16 681.828L1264.48 727.244" stroke="#3BA933" stroke-width="4" stroke-miterlimit="10" stroke-linecap="round" stroke-linejoin="round"/>
<path d="M1291.54 678.155L1308.23 704.537" stroke="#3BA933" stroke-width="4" stroke-miterlimit="10" stroke-linecap="round" stroke-linejoin="round"/>
<path d="M1253.46 673.814L1230.09 696.857" stroke="#3BA933" stroke-width="4" stroke-miterlimit="10" stroke-linecap="round" stroke-linejoin="round"/>
</svg>
