<?xml version="1.0" encoding="utf-8"?>
<!-- Generator: Adobe Illustrator 15.1.0, SVG Export Plug-In . SVG Version: 6.00 Build 0)  -->
<!DOCTYPE svg PUBLIC "-//W3C//DTD SVG 1.1//EN" "http://www.w3.org/Graphics/SVG/1.1/DTD/svg11.dtd">
<svg version="1.1" id="Layer_1" xmlns="http://www.w3.org/2000/svg" xmlns:xlink="http://www.w3.org/1999/xlink" x="0px" y="0px"
	 width="433.7px" height="155.91px" viewBox="0 0 433.7 155.91" enable-background="new 0 0 433.7 155.91" xml:space="preserve">
<g>
	<defs>
		<rect id="SVGID_1_" x="22.677" y="22.68" width="391.934" height="110.551"/>
	</defs>
	<clipPath id="SVGID_2_">
		<use xlink:href="#SVGID_1_"  overflow="visible"/>
	</clipPath>
	<path clip-path="url(#SVGID_2_)" fill="#717073" d="M395.892,76.243c-0.102,0-0.203-0.033-0.203-0.203v-0.61
		c0-4.365,0-5.416,0.066-6.33c0.069-1.016,0.305-1.422,1.118-1.557c0.339-0.069,0.609-0.102,0.847-0.102
		c0.373,0,0.541-0.102,0.541-0.306c0-0.203-0.203-0.27-0.61-0.27c-1.185,0-3.249,0.066-3.96,0.066c-0.812,0-2.775-0.066-4.366-0.066
		c-0.406,0-0.644,0.066-0.644,0.27c0,0.204,0.203,0.306,0.508,0.306c0.439,0,0.948,0.032,1.186,0.102
		c0.948,0.271,1.219,0.575,1.286,1.557c0.034,0.914,0.034,1.727,0.034,6.094v5.078c0,2.64,0,4.907-0.137,6.127
		c-0.101,0.846-0.27,1.388-0.88,1.522c-0.271,0.069-0.607,0.104-1.05,0.104c-0.372,0-0.472,0.168-0.472,0.303
		c0,0.203,0.201,0.311,0.574,0.311c1.185,0,3.147-0.101,3.824-0.101c0.847,0,2.911,0.101,4.841,0.101c0.374,0,0.61-0.107,0.61-0.311
		c0-0.135-0.135-0.303-0.474-0.303c-0.439,0-1.117-0.034-1.524-0.104c-0.88-0.135-1.049-0.677-1.15-1.489
		c-0.136-1.253-0.169-3.452-0.169-6.094v-2.199c0-0.136,0.102-0.17,0.203-0.17h11.238c0.068,0,0.169,0.067,0.169,0.17v2.199
		c0,2.642,0,4.841-0.136,6.061c-0.102,0.846-0.271,1.388-0.879,1.522c-0.271,0.069-0.61,0.104-1.083,0.104
		c-0.338,0-0.475,0.168-0.475,0.303c0,0.203,0.237,0.311,0.644,0.311c1.15,0,3.25-0.101,3.927-0.101
		c0.812,0,2.775,0.101,4.705,0.101c0.373,0,0.609-0.107,0.609-0.311c0-0.135-0.17-0.303-0.474-0.303
		c-0.475,0-1.117-0.034-1.523-0.104c-0.914-0.135-1.083-0.677-1.185-1.489c-0.136-1.253-0.136-3.521-0.136-6.16v-5.078
		c0-4.367,0-5.18,0.067-6.094c0.068-1.016,0.305-1.422,1.083-1.557c0.372-0.069,0.644-0.102,0.881-0.102
		c0.338,0,0.541-0.102,0.541-0.306c0-0.203-0.203-0.27-0.643-0.27c-1.151,0-3.115,0.066-3.826,0.066
		c-0.777,0-2.877-0.066-4.468-0.066c-0.439,0-0.643,0.066-0.643,0.27c0,0.204,0.168,0.306,0.507,0.306
		c0.407,0,0.915,0.032,1.151,0.102c0.947,0.271,1.218,0.575,1.286,1.557c0.033,0.914,0.067,1.965,0.067,6.33v0.61
		c0,0.17-0.101,0.203-0.169,0.203H395.892z M374.226,80.271c0,2.64,0,4.907-0.134,6.127c-0.102,0.846-0.271,1.388-0.881,1.522
		c-0.237,0.069-0.61,0.104-1.05,0.104c-0.372,0-0.474,0.168-0.474,0.303c0,0.203,0.204,0.311,0.576,0.311
		c1.185,0,3.215-0.101,3.893-0.101c0.846,0,2.843,0.101,4.807,0.101c0.338,0,0.575-0.107,0.575-0.311
		c0-0.135-0.134-0.303-0.474-0.303c-0.44,0-1.117-0.034-1.522-0.104c-0.88-0.135-1.051-0.677-1.151-1.489
		c-0.136-1.253-0.17-3.521-0.17-6.16V68.626l3.757,0.067c2.676,0.035,3.454,0.915,3.521,1.657l0.034,0.307
		c0.033,0.439,0.102,0.576,0.338,0.576c0.17,0,0.236-0.169,0.271-0.475c0-0.745,0.067-2.878,0.067-3.485
		c0-0.441-0.033-0.61-0.237-0.61c-0.102,0-0.338,0.067-0.812,0.135c-0.439,0.068-1.083,0.135-2.03,0.135h-12.085
		c-0.982,0-2.099-0.033-2.98-0.135c-0.743-0.101-1.049-0.338-1.285-0.338c-0.169,0-0.271,0.168-0.339,0.541
		c-0.067,0.237-0.643,3.013-0.643,3.487c0,0.304,0.067,0.475,0.271,0.475c0.201,0,0.27-0.137,0.338-0.373
		c0.067-0.203,0.203-0.576,0.508-0.981c0.438-0.645,1.149-0.847,2.878-0.88l4.433-0.103V80.271z M352.122,68.863
		c0-0.237,0.067-0.338,0.271-0.407c0.305-0.066,1.017-0.101,1.761-0.101c1.76,0,4.535,1.05,4.535,5.111
		c0,2.37-1.015,3.622-1.929,4.266c-0.509,0.373-0.914,0.474-2.099,0.474c-0.745,0-1.625-0.067-2.269-0.271
		c-0.203-0.102-0.271-0.203-0.271-0.509V68.863z M348.331,80.271c0,2.64,0,4.907-0.136,6.127c-0.103,0.846-0.271,1.388-0.881,1.522
		c-0.271,0.069-0.608,0.104-1.049,0.104c-0.373,0-0.474,0.168-0.474,0.303c0,0.203,0.203,0.311,0.575,0.311
		c1.185,0,3.08-0.101,3.655-0.101c0.44,0,2.912,0.101,4.639,0.101c0.372,0,0.608-0.107,0.608-0.311c0-0.135-0.135-0.303-0.372-0.303
		c-0.373,0-1.016-0.034-1.456-0.104c-0.913-0.135-1.049-0.677-1.15-1.522c-0.135-1.22-0.169-3.453-0.169-6.127v-0.407
		c0-0.169,0.101-0.236,0.236-0.236l2.675,0.067c0.204,0,0.372,0.034,0.541,0.204c0.373,0.438,1.626,2.369,2.81,3.927
		c1.658,2.232,2.776,3.588,4.063,4.23c0.778,0.406,1.59,0.581,3.25,0.581h2.843c0.372,0,0.575-0.066,0.575-0.311
		c0-0.135-0.136-0.303-0.372-0.303c-0.237,0-0.406,0-0.712-0.069c-0.474-0.102-1.522-0.237-3.182-1.896
		c-1.794-1.794-3.892-4.4-6.534-7.648c2.912-2.337,4.132-4.232,4.132-6.365c0-1.929-1.253-3.385-2.1-3.961
		c-1.591-1.049-3.758-1.218-5.653-1.218c-0.913,0-3.622,0.066-4.638,0.066c-0.609,0-2.505-0.066-4.062-0.066
		c-0.441,0-0.678,0.066-0.678,0.27c0,0.204,0.203,0.306,0.508,0.306c0.44,0,0.947,0.032,1.185,0.102
		c0.948,0.271,1.218,0.575,1.286,1.557c0.035,0.914,0.035,1.727,0.035,6.094V80.271z M331.507,87.448
		c-5.62,0-9.005-4.672-9.005-10.596c0-7.108,3.892-8.869,7.211-8.869c4.806,0,8.631,3.927,8.631,10.29
		C338.344,86.466,333.605,87.448,331.507,87.448 M330.288,89.01c7.685,0,12.491-5.184,12.491-11.786
		c0-6.601-4.673-10.764-12.188-10.764c-9.038,0-12.49,6.363-12.49,11.272C318.102,82.844,321.621,89.01,330.288,89.01
		 M292.577,87.955c0.271,0.751,0.44,1.055,0.812,1.055c0.44,0,0.61-0.339,1.151-1.528c1.218-2.642,5.213-12.83,5.721-14.049h0.068
		l6.059,14.185c0.44,1.054,0.644,1.393,1.049,1.393c0.44,0,0.609-0.339,0.948-1.359c1.456-4.298,4.502-13.438,5.89-17.061
		c0.61-1.66,0.949-2.743,1.659-3.013c0.339-0.104,0.744-0.136,1.049-0.136c0.271,0,0.406-0.136,0.406-0.339
		c0-0.17-0.203-0.236-0.541-0.236c-0.981,0-2.269,0.066-2.471,0.066c-0.271,0-1.625-0.066-3.182-0.066
		c-0.476,0-0.711,0.066-0.711,0.27c0,0.17,0.235,0.306,0.507,0.306c1.186,0,1.456,0.338,1.456,0.812
		c0,0.406-0.102,0.981-0.306,1.658c-1.049,3.352-3.316,10.933-3.892,12.594h-0.103l-5.957-14.218
		c-0.372-0.915-0.644-1.355-0.981-1.355c-0.271,0-0.575,0.238-0.88,1.051l-5.688,14.713h-0.101
		c-0.44-1.32-3.148-10.036-3.657-11.932c-0.371-1.321-0.643-2.274-0.643-2.646c0-0.305,0.034-0.473,0.306-0.575
		c0.236-0.069,0.507-0.102,0.744-0.102c0.305,0,0.542-0.102,0.542-0.306c0-0.203-0.204-0.27-0.644-0.27
		c-1.726,0-3.183,0.066-3.454,0.066c-0.27,0-1.929-0.066-3.452-0.066c-0.445,0-0.683,0.066-0.683,0.27
		c0,0.204,0.169,0.306,0.476,0.306c0.275,0,0.851,0.032,1.155,0.236c0.44,0.272,0.678,0.948,1.05,1.997L292.577,87.955z
		 M269.523,80.271c0,2.64,0,4.907-0.135,6.127c-0.102,0.846-0.27,1.388-0.88,1.522c-0.271,0.069-0.609,0.104-1.05,0.104
		c-0.372,0-0.474,0.168-0.474,0.303c0,0.203,0.202,0.311,0.575,0.311c0.61,0,1.354-0.033,2.065-0.066
		c0.71,0,1.354-0.041,1.693-0.041c0.879,0,1.996,0.041,3.451,0.074c1.456,0.066,3.25,0.102,5.485,0.102c1.116,0,1.387,0,1.59-0.751
		c0.169-0.576,0.407-2.539,0.407-3.182c0-0.306-0.034-0.678-0.271-0.678c-0.202,0-0.271,0.136-0.339,0.44
		c-0.204,1.185-0.541,1.794-1.286,2.132c-0.778,0.338-2.031,0.373-2.81,0.373c-3.047,0-3.96-0.44-4.028-2.403
		c-0.033-0.847,0-3.283,0-4.266v-2.301c0-0.17,0.033-0.306,0.169-0.306c0.745,0,4.13,0.068,4.673,0.136
		c1.116,0.102,1.488,0.542,1.657,1.117c0.068,0.371,0.068,0.744,0.102,1.05c0,0.135,0.068,0.236,0.271,0.236
		c0.272,0,0.306-0.405,0.306-0.643c0-0.203,0.068-1.355,0.136-1.93c0.169-1.455,0.236-1.931,0.236-2.099
		c0-0.17-0.102-0.305-0.236-0.305c-0.136,0-0.237,0.168-0.475,0.372c-0.271,0.305-0.711,0.372-1.422,0.438
		c-0.677,0.07-4.536,0.07-5.214,0.07c-0.169,0-0.202-0.137-0.202-0.306v-7.108c0-0.17,0.068-0.271,0.202-0.271
		c0.61,0,4.165,0.066,4.672,0.135c1.49,0.136,1.727,0.541,1.964,1.049c0.169,0.338,0.203,0.847,0.203,1.05
		c0,0.237,0.034,0.372,0.237,0.372c0.237,0,0.305-0.339,0.338-0.474c0.068-0.339,0.136-1.59,0.17-1.896
		c0.067-1.32,0.236-1.659,0.236-1.862c0-0.136-0.033-0.271-0.202-0.271c-0.136,0-0.305,0.103-0.475,0.136
		c-0.236,0.034-0.71,0.136-1.251,0.169c-0.576,0.035-7.179,0-8.125,0c-0.848,0-2.742-0.066-4.301-0.066
		c-0.439,0-0.677,0.066-0.677,0.27c0,0.204,0.204,0.306,0.509,0.306c0.439,0,0.947,0.032,1.185,0.102
		c0.947,0.271,1.219,0.575,1.287,1.557c0.032,0.914,0.032,1.727,0.032,6.094V80.271z M254.833,75.193c0-4.367,0-5.18,0.067-6.094
		c0.067-1.016,0.305-1.422,1.116-1.557c0.34-0.069,0.813-0.102,1.151-0.102c0.372,0,0.542-0.102,0.542-0.306
		c0-0.203-0.203-0.27-0.644-0.27c-1.15,0-3.588,0.066-4.299,0.066c-0.812,0-2.708-0.066-4.097-0.066
		c-0.439,0-0.643,0.066-0.643,0.27c0,0.204,0.17,0.306,0.509,0.306c0.372,0,0.744,0.032,0.98,0.102
		c0.948,0.271,1.22,0.575,1.286,1.557c0.035,0.914,0.035,1.727,0.035,6.094v5.078c0,2.64,0,4.907-0.136,6.127
		c-0.103,0.846-0.271,1.388-0.88,1.522c-0.272,0.069-0.609,0.104-1.05,0.104c-0.373,0-0.475,0.168-0.475,0.303
		c0,0.203,0.203,0.311,0.576,0.311c0.608,0,1.354-0.033,2.064-0.066c0.711,0,1.354-0.041,1.693-0.041
		c1.218,0,2.471,0.041,3.96,0.074c1.49,0.066,3.215,0.102,5.348,0.102c1.559,0,1.693-0.135,1.896-0.785
		c0.237-0.846,0.441-2.979,0.441-3.316c0-0.34-0.069-0.644-0.272-0.644c-0.236,0-0.304,0.169-0.338,0.44
		c-0.067,0.541-0.372,1.354-0.744,1.727c-0.745,0.778-1.896,0.812-3.488,0.812c-2.301,0-3.452-0.169-3.96-0.61
		c-0.643-0.541-0.643-2.369-0.643-6.059V75.193z M233.372,80.271c0,2.64,0,4.907-0.137,6.127c-0.102,0.846-0.271,1.388-0.879,1.522
		c-0.238,0.069-0.611,0.104-1.05,0.104c-0.372,0-0.475,0.168-0.475,0.303c0,0.203,0.202,0.311,0.575,0.311
		c1.185,0,3.216-0.101,3.894-0.101c0.847,0,2.843,0.101,4.806,0.101c0.34,0,0.576-0.107,0.576-0.311
		c0-0.135-0.135-0.303-0.474-0.303c-0.441,0-1.118-0.034-1.522-0.104c-0.881-0.135-1.05-0.677-1.152-1.489
		c-0.135-1.253-0.168-3.521-0.168-6.16V68.626l3.757,0.067c2.674,0.035,3.453,0.915,3.521,1.657l0.033,0.307
		c0.034,0.439,0.103,0.576,0.339,0.576c0.169,0,0.237-0.169,0.271-0.475c0-0.745,0.066-2.878,0.066-3.485
		c0-0.441-0.032-0.61-0.235-0.61c-0.103,0-0.339,0.067-0.813,0.135c-0.439,0.068-1.082,0.135-2.03,0.135h-12.086
		c-0.981,0-2.098-0.033-2.979-0.135c-0.744-0.101-1.049-0.338-1.286-0.338c-0.17,0-0.271,0.168-0.339,0.541
		c-0.068,0.237-0.645,3.013-0.645,3.487c0,0.304,0.07,0.475,0.272,0.475c0.204,0,0.271-0.137,0.338-0.373
		c0.067-0.203,0.203-0.576,0.509-0.981c0.439-0.645,1.15-0.847,2.877-0.88l4.436-0.103V80.271z M211.942,80.271
		c0,2.64,0,4.907-0.135,6.127c-0.103,0.846-0.271,1.388-0.879,1.522c-0.238,0.069-0.611,0.104-1.05,0.104
		c-0.373,0-0.474,0.168-0.474,0.303c0,0.203,0.201,0.311,0.574,0.311c1.186,0,3.215-0.101,3.893-0.101
		c0.847,0,2.845,0.101,4.807,0.101c0.34,0,0.576-0.107,0.576-0.311c0-0.135-0.134-0.303-0.475-0.303
		c-0.439,0-1.116-0.034-1.522-0.104c-0.88-0.135-1.049-0.677-1.151-1.489c-0.135-1.253-0.168-3.521-0.168-6.16V68.626l3.756,0.067
		c2.676,0.035,3.453,0.915,3.521,1.657l0.033,0.307c0.035,0.439,0.102,0.576,0.34,0.576c0.169,0,0.236-0.169,0.27-0.475
		c0-0.745,0.067-2.878,0.067-3.485c0-0.441-0.032-0.61-0.235-0.61c-0.102,0-0.34,0.067-0.812,0.135
		c-0.441,0.068-1.084,0.135-2.031,0.135h-12.086c-0.98,0-2.098-0.033-2.979-0.135c-0.744-0.101-1.049-0.338-1.286-0.338
		c-0.169,0-0.271,0.168-0.339,0.541c-0.068,0.237-0.643,3.013-0.643,3.487c0,0.304,0.067,0.475,0.27,0.475
		c0.205,0,0.271-0.137,0.339-0.373c0.067-0.203,0.204-0.576,0.509-0.981c0.439-0.645,1.15-0.847,2.876-0.88l4.435-0.103V80.271z
		 M180.969,79.425c0,4.163,1.185,6.296,2.709,7.616c2.166,1.902,5.247,1.969,6.804,1.969c1.93,0,4.196-0.304,6.295-2.069
		c2.506-2.065,2.845-5.45,2.845-8.667v-3.08c0-4.367,0.034-5.18,0.067-6.094c0.067-1.016,0.271-1.422,1.084-1.557
		c0.371-0.069,0.541-0.102,0.879-0.102c0.34,0,0.508-0.102,0.508-0.306c0-0.203-0.202-0.27-0.608-0.27
		c-1.151,0-3.149,0.066-3.487,0.066c-0.033,0-2.031-0.066-3.554-0.066c-0.407,0-0.61,0.066-0.61,0.27
		c0,0.204,0.17,0.306,0.508,0.306c0.339,0,0.847,0.032,1.084,0.102c0.947,0.271,1.185,0.575,1.252,1.557
		c0.033,0.914,0.068,1.727,0.068,6.094v3.622c0,2.945-0.068,5.449-1.727,7.008c-1.186,1.15-2.709,1.522-3.994,1.522
		c-1.016,0-2.438-0.102-3.759-1.15c-1.454-1.151-2.267-2.776-2.267-6.974v-4.028c0-4.367,0-5.18,0.067-6.094
		c0.067-1.016,0.304-1.422,1.083-1.557c0.372-0.069,0.541-0.102,0.88-0.102c0.306,0,0.474-0.102,0.474-0.306
		c0-0.203-0.203-0.27-0.643-0.27c-1.083,0-3.081,0.066-3.824,0.066c-0.881,0-2.879-0.066-4.47-0.066c-0.44,0-0.644,0.066-0.644,0.27
		c0,0.204,0.17,0.306,0.509,0.306c0.405,0,0.913,0.032,1.151,0.102c0.946,0.271,1.219,0.541,1.287,1.557
		c0.066,0.914,0.032,1.727,0.032,6.094V79.425z M157.104,76.243c-0.103,0-0.205-0.033-0.205-0.203v-0.61c0-4.365,0-5.416,0.068-6.33
		c0.068-1.016,0.305-1.422,1.117-1.557c0.339-0.069,0.609-0.102,0.847-0.102c0.373,0,0.541-0.102,0.541-0.306
		c0-0.203-0.202-0.27-0.608-0.27c-1.186,0-3.25,0.066-3.961,0.066c-0.812,0-2.776-0.066-4.367-0.066
		c-0.406,0-0.643,0.066-0.643,0.27c0,0.204,0.202,0.306,0.508,0.306c0.439,0,0.947,0.032,1.185,0.102
		c0.948,0.271,1.218,0.575,1.286,1.557c0.033,0.914,0.033,1.727,0.033,6.094v5.078c0,2.64,0,4.907-0.135,6.127
		c-0.102,0.846-0.271,1.388-0.88,1.522c-0.272,0.069-0.608,0.104-1.05,0.104c-0.372,0-0.473,0.168-0.473,0.303
		c0,0.203,0.201,0.311,0.574,0.311c1.185,0,3.148-0.101,3.824-0.101c0.848,0,2.912,0.101,4.842,0.101
		c0.373,0,0.609-0.107,0.609-0.311c0-0.135-0.135-0.303-0.475-0.303c-0.438,0-1.116-0.034-1.522-0.104
		c-0.881-0.135-1.049-0.677-1.151-1.489c-0.135-1.253-0.17-3.452-0.17-6.094v-2.199c0-0.136,0.103-0.17,0.205-0.17h11.238
		c0.066,0,0.168,0.067,0.168,0.17v2.199c0,2.642,0,4.841-0.135,6.061c-0.102,0.846-0.271,1.388-0.88,1.522
		c-0.271,0.069-0.609,0.104-1.083,0.104c-0.338,0-0.475,0.168-0.475,0.303c0,0.203,0.237,0.311,0.644,0.311
		c1.151,0,3.25-0.101,3.927-0.101c0.812,0,2.775,0.101,4.705,0.101c0.373,0,0.609-0.107,0.609-0.311
		c0-0.135-0.168-0.303-0.475-0.303c-0.473,0-1.115-0.034-1.523-0.104c-0.912-0.135-1.082-0.677-1.184-1.489
		c-0.137-1.253-0.137-3.521-0.137-6.16v-5.078c0-4.367,0-5.18,0.068-6.094c0.068-1.016,0.305-1.422,1.084-1.557
		c0.371-0.069,0.643-0.102,0.879-0.102c0.34,0,0.543-0.102,0.543-0.306c0-0.203-0.203-0.27-0.643-0.27
		c-1.152,0-3.115,0.066-3.826,0.066c-0.778,0-2.877-0.066-4.469-0.066c-0.439,0-0.643,0.066-0.643,0.27
		c0,0.204,0.169,0.306,0.507,0.306c0.407,0,0.915,0.032,1.151,0.102c0.947,0.271,1.219,0.575,1.287,1.557
		c0.033,0.914,0.066,1.965,0.066,6.33v0.61c0,0.17-0.102,0.203-0.168,0.203H157.104z M138.519,89.01
		c1.592,0,3.555-0.169,4.977-1.189c2.166-1.524,2.979-3.25,2.979-5.383c0-2.606-1.218-4.807-5.145-6.974l-1.219-0.677
		c-2.674-1.489-3.148-2.504-3.148-3.791c0-1.964,1.929-3.081,4.062-3.081c1.93,0,2.877,0.813,3.317,1.353
		c0.642,0.746,0.779,1.627,0.779,1.897c0,0.338,0.101,0.508,0.304,0.508c0.236,0,0.372-0.305,0.372-0.914
		c0-2.269,0.103-3.081,0.103-3.453c0-0.203-0.136-0.305-0.406-0.373c-0.779-0.202-2.303-0.473-4.232-0.473
		c-4.129,0-7.515,2.269-7.515,5.788c0,2.539,1.151,4.468,4.672,6.534l1.726,1.015c2.641,1.558,2.945,2.811,2.945,4.062
		c0,2.03-1.557,3.655-4.13,3.655c-1.861,0-4.097-0.711-4.739-2.843c-0.169-0.509-0.271-1.117-0.271-1.49
		c0-0.202-0.033-0.474-0.305-0.474c-0.236,0-0.371,0.305-0.371,0.745c-0.035,0.474-0.17,2.268-0.17,3.825
		c0,0.643,0.102,0.778,0.576,0.981C134.965,88.841,136.794,89.01,138.519,89.01"/>
	<path clip-path="url(#SVGID_2_)" fill="#439539" d="M55.353,45.237c-17.533,8.383-28.415,24.28-27.811,38.764
		c0.486,11.612,9.5,26.01,24.404,34.874c-18.228,0.556-29.068-21.655-28.621-32.419c-2.6,12.52,1.939,36.144,25.967,44.678
		c7.916,2.811,22.713,3.246,29.32-1.514c11.424-8.228,6.825-19.558-2.578-27.276C65.144,93.405,55.59,87.488,50.099,75.356
		C46.37,67.121,45.028,56.85,55.353,45.237"/>
	<path clip-path="url(#SVGID_2_)" fill="#C1D82F" d="M64.699,83.957C49.273,68.144,52.494,57.453,62.36,43.752
		c4.595-6.381,9.13-12.755,8.367-21.073c23.484,25.07,1.52,33.258,13.054,46.088c1.631-7.077,6.612-14.474,13.565-19.798
		c-1.928,19.917,4.642,20.542,10.416,32.809c8.91,18.925-3.418,39.925-21.816,48.669c7.812-7.67,8.622-18.206-0.576-28.576
		C80.691,96.594,72.203,91.647,64.699,83.957"/>
	<path clip-path="url(#SVGID_2_)" fill="#439539" d="M217.502,102.081l1.086-2.399c0.161-0.356,0.209-0.604,0.14-0.744
		c-0.072-0.152-0.317-0.227-0.731-0.227h-1.022c-0.365,0-0.582,0.074-0.658,0.22c-0.073,0.15-0.039,0.388,0.104,0.712
		L217.502,102.081z M213.421,111.356l-4.638-10.867c-0.228-0.529-0.361-0.832-0.399-0.91c-0.189-0.356-0.39-0.593-0.595-0.702
		c-0.209-0.109-0.47-0.166-0.785-0.166h-0.159v-0.825h5.037v0.825c-0.383,0.042-0.605,0.159-0.668,0.354
		c-0.06,0.205-0.003,0.518,0.178,0.938l3.515,8.17l1.216-2.77l-2.245-5.255c-0.206-0.477-0.36-0.79-0.476-0.949
		c-0.228-0.318-0.5-0.479-0.813-0.487v-0.825h8.321v0.825c-0.459,0.096-0.792,0.314-1.004,0.653
		c-0.124,0.204-0.272,0.504-0.444,0.896l-1.383,3.134l1.995,4.51l2.615-7.415c0.215-0.607,0.256-1.051,0.119-1.334
		c-0.136-0.289-0.478-0.437-1.028-0.444v-0.825h3.841v0.825c-0.507,0.035-0.906,0.23-1.197,0.589
		c-0.209,0.247-0.428,0.686-0.648,1.313l-3.84,10.743h-1.236l-2.029-4.662l-1.975,4.662H213.421z M192.214,103.662
		c0,2.001,0.422,3.635,1.262,4.902c0.822,1.253,1.907,1.881,3.256,1.881c1.67,0,2.818-0.907,3.451-2.718
		c0.282-0.836,0.426-1.75,0.426-2.752c0-1.818-0.381-3.354-1.141-4.6c-0.805-1.322-1.894-1.986-3.264-1.986
		c-1.646,0-2.809,0.837-3.489,2.503C192.382,101.7,192.214,102.621,192.214,103.662 M189.378,104.687
		c0-2.086,0.68-3.812,2.045-5.167c1.361-1.358,3.106-2.039,5.233-2.039c1.998,0,3.628,0.628,4.889,1.877
		c1.263,1.252,1.894,2.869,1.894,4.855c0,1.508-0.381,2.855-1.141,4.04c-0.744,1.158-1.751,2.005-3.023,2.534
		c-0.893,0.378-1.883,0.569-2.979,0.569c-1.267,0-2.423-0.262-3.461-0.787c-1.148-0.586-2.025-1.438-2.634-2.552
		C189.649,107.004,189.378,105.893,189.378,104.687 M186.429,107.375l-1.389,3.681h-10.176v-0.826h0.316
		c0.767,0,1.244-0.219,1.438-0.652c0.092-0.212,0.139-0.501,0.139-0.869v-8.476c0-1.013-0.496-1.521-1.494-1.521h-0.361v-0.825
		h6.437v0.825h-0.547c-0.94,0-1.409,0.494-1.409,1.479v8.726c0,0.387,0.07,0.644,0.209,0.773c0.139,0.131,0.383,0.198,0.738,0.198
		h2.418c0.707,0,1.293-0.297,1.755-0.89c0.209-0.268,0.601-0.809,1.168-1.623H186.429z M172.651,107.375l-1.391,3.681h-10.176
		v-0.826h0.316c0.767,0,1.244-0.219,1.438-0.652c0.091-0.212,0.14-0.501,0.14-0.869v-8.476c0-1.013-0.498-1.521-1.494-1.521h-0.362
		v-0.825h6.437v0.825h-0.547c-0.94,0-1.41,0.494-1.41,1.479v8.726c0,0.387,0.07,0.644,0.209,0.773
		c0.14,0.131,0.383,0.198,0.738,0.198h2.418c0.706,0,1.293-0.297,1.756-0.89c0.209-0.268,0.601-0.809,1.168-1.623H172.651z
		 M156.573,100.955c-0.082-0.648-0.18-1.09-0.297-1.323c-0.196-0.388-0.536-0.578-1.01-0.578h-4.168v4.764h3.08
		c0.514,0,0.881-0.112,1.1-0.339c0.219-0.229,0.328-0.624,0.328-1.189h0.762v4.217h-0.762c0-0.758-0.201-1.221-0.61-1.387
		c-0.247-0.095-0.617-0.144-1.104-0.144h-2.793v3.814c0,0.389,0.035,0.649,0.104,0.787c0.092,0.208,0.292,0.311,0.603,0.311h3.172
		c0.693,0,1.199-0.174,1.52-0.516c0.292-0.303,0.514-0.854,0.668-1.645h0.715l-0.221,3.328H146.22v-0.826h0.779
		c0.991,0,1.484-0.507,1.484-1.521v-8.447c0-0.625-0.139-1.049-0.418-1.271c-0.233-0.187-0.648-0.279-1.24-0.279h-0.188v-0.825
		h10.465l0.192,3.069H156.573z M137.435,99.054v4.764h2.644c0.839,0,1.345-0.201,1.51-0.61c0.095-0.219,0.14-0.533,0.14-0.938h0.763
		v4.217h-0.763c0-1.006-0.435-1.51-1.308-1.51h-2.985v3.412c0,0.952,0.158,1.518,0.472,1.697c0.174,0.096,0.44,0.145,0.798,0.145
		h0.359v0.826h-5.672v-0.826h0.303c0.41,0,0.697-0.091,0.865-0.269c0.164-0.179,0.25-0.492,0.25-0.941v-8.572
		c0-0.586-0.066-1.002-0.196-1.249c-0.177-0.339-0.507-0.508-0.981-0.508h-0.24v-0.805h9.59v2.985h-0.688
		c-0.031-0.618-0.105-1.048-0.222-1.281c-0.175-0.36-0.5-0.536-0.976-0.536H137.435z"/>
</g>
</svg>
